<?xml version="1.0"?>
<svg xmlns="http://www.w3.org/2000/svg" width="64" version="1.1" height="64" xmlns:xlink="http://www.w3.org/1999/xlink" baseProfile="tiny">
 <path style="fill:#008200; stroke:none;" d="M12 12L12 14L10 14L10 12L12 12z"/>
 <path style="fill:#008200; stroke:none;" d="M19 12L17 14L17 12L19 12z"/>
 <path style="fill:#020200; stroke:none;" d="M20 0L20 1L21 1L21 0z"/>
 <path style="fill:#0b0b00; stroke:none;" d="M21 0L21 1L22 1L22 0z"/>
 <path style="fill:#141400; stroke:none;" d="M22 0L22 1L23 1L23 0z"/>
 <path style="fill:#191900; stroke:none;" d="M23 0L23 1L24 1L24 0z"/>
 <path style="fill:#232300; stroke:none;" d="M24 0L24 1L25 1L25 0z"/>
 <path style="fill:#252500; stroke:none;" d="M25 0L25 1L26 1L26 0z"/>
 <path style="fill:#2d2d00; stroke:none;" d="M26 0L26 1L27 1L27 0z"/>
 <path style="fill:#2f2f00; stroke:none;" d="M27 0L27 1L28 1L29 1L30 1L31 1L32 1L33 1L34 1L35 1L36 1L37 1L37 0L36 0L35 0L34 0L33 0L32 0L31 0L30 0L29 0L28 0z"/>
 <path style="fill:#2d2d00; stroke:none;" d="M37 0L37 1L38 1L38 0z"/>
 <path style="fill:#252500; stroke:none;" d="M38 0L38 1L39 1L39 0z"/>
 <path style="fill:#232300; stroke:none;" d="M39 0L39 1L40 1L40 0z"/>
 <path style="fill:#191900; stroke:none;" d="M40 0L40 1L41 1L41 0z"/>
 <path style="fill:#141400; stroke:none;" d="M41 0L41 1L42 1L42 0z"/>
 <path style="fill:#0b0b00; stroke:none;" d="M42 0L42 1L43 1L43 0z"/>
 <path style="fill:#020200; stroke:none;" d="M43 0L43 1L44 1L44 0z"/>
 <path style="fill:#0c0c00; stroke:none;" d="M17 1L17 2L18 2L18 1z"/>
 <path style="fill:#2d2d00; stroke:none;" d="M18 1L18 2L19 2L19 1z"/>
 <path style="fill:#494900; stroke:none;" d="M19 1L19 2L20 2L20 1z"/>
 <path style="fill:#686800; stroke:none;" d="M20 1L20 2L21 2L21 1z"/>
 <path style="fill:#878700; stroke:none;" d="M21 1L21 2L22 2L22 1z"/>
 <path style="fill:#a5a500; stroke:none;" d="M22 1L22 2L23 2L23 1z"/>
 <path style="fill:#b8b800; stroke:none;" d="M23 1L23 2L24 2L24 1z"/>
 <path style="fill:#d8d800; stroke:none;" d="M24 1L24 2L25 2L25 1z"/>
 <path style="fill:#e0e000; stroke:none;" d="M25 1L25 2L26 2L26 1z"/>
 <path style="fill:#f7f700; stroke:none;" d="M26 1L26 2L27 2L27 1z"/>
 <path style="fill:#ffff00; stroke:none;" d="M27 1L27 2L26 2L25 2L24 2L23 2L22 2L21 2L20 2L20 3L19 3L18 3L17 3L17 4L16 4L15 4L14 4L14 5L15 5L16 5L17 5L18 5L19 5L20 5L21 5L22 5L23 5L24 5L25 5L26 5L27 5L28 5L29 5L30 5L31 5L32 5L33 5L34 5L35 5L36 5L37 5L38 5L39 5L40 5L41 5L42 5L43 5L44 5L45 5L46 5L47 5L48 5L49 5L50 5L50 4L49 4L48 4L47 4L47 3L46 3L45 3L44 3L44 2L43 2L42 2L41 2L40 2L39 2L38 2L37 2L37 1L36 1L35 1L34 1L33 1L32 1L31 1L30 1L29 1L28 1z"/>
 <path style="fill:#f7f700; stroke:none;" d="M37 1L37 2L38 2L38 1z"/>
 <path style="fill:#dfdf00; stroke:none;" d="M38 1L38 2L39 2L39 1z"/>
 <path style="fill:#d8d800; stroke:none;" d="M39 1L39 2L40 2L40 1z"/>
 <path style="fill:#b8b800; stroke:none;" d="M40 1L40 2L41 2L41 1z"/>
 <path style="fill:#a4a400; stroke:none;" d="M41 1L41 2L42 2L42 1z"/>
 <path style="fill:#878700; stroke:none;" d="M42 1L42 2L43 2L43 1z"/>
 <path style="fill:#676700; stroke:none;" d="M43 1L43 2L44 2L44 1z"/>
 <path style="fill:#454500; stroke:none;" d="M44 1L44 2L45 2L45 1z"/>
 <path style="fill:#2d2d00; stroke:none;" d="M45 1L45 2L46 2L46 1z"/>
 <path style="fill:#0c0c00; stroke:none;" d="M46 1L46 2L47 2L47 1z"/>
 <path style="fill:#080800; stroke:none;" d="M14 2L14 3L15 3L15 2z"/>
 <path style="fill:#373700; stroke:none;" d="M15 2L15 3L16 3L16 2z"/>
 <path style="fill:#7f7f00; stroke:none;" d="M16 2L16 3L17 3L17 2z"/>
 <path style="fill:#a2a200; stroke:none;" d="M17 2L17 3L18 3L18 2z"/>
 <path style="fill:#c6c600; stroke:none;" d="M18 2L18 3L19 3L19 2z"/>
 <path style="fill:#e4e400; stroke:none;" d="M19 2L19 3L20 3L20 2z"/>
 <path style="fill:#e0e000; stroke:none;" d="M44 2L44 3L45 3L45 2z"/>
 <path style="fill:#c6c600; stroke:none;" d="M45 2L45 3L46 3L46 2z"/>
 <path style="fill:#a2a200; stroke:none;" d="M46 2L46 3L47 3L47 2z"/>
 <path style="fill:#7e7e00; stroke:none;" d="M47 2L47 3L48 3L48 2z"/>
 <path style="fill:#373700; stroke:none;" d="M48 2L48 3L49 3L49 2z"/>
 <path style="fill:#0b0b00; stroke:none;" d="M49 2L49 3L50 3L50 2z"/>
 <path style="fill:#0a0a00; stroke:none;" d="M12 3L12 4L13 4L13 3z"/>
 <path style="fill:#525200; stroke:none;" d="M13 3L13 4L14 4L14 3z"/>
 <path style="fill:#b0b000; stroke:none;" d="M14 3L14 4L15 4L15 3z"/>
 <path style="fill:#dcdc00; stroke:none;" d="M15 3L15 4L16 4L16 3z"/>
 <path style="fill:#f7f700; stroke:none;" d="M16 3L16 4L17 4L17 3z"/>
 <path style="fill:#f7f700; stroke:none;" d="M47 3L47 4L48 4L48 3z"/>
 <path style="fill:#dcdc00; stroke:none;" d="M48 3L48 4L49 4L49 3z"/>
 <path style="fill:#b2b200; stroke:none;" d="M49 3L49 4L50 4L50 3z"/>
 <path style="fill:#535300; stroke:none;" d="M50 3L50 4L51 4L51 3z"/>
 <path style="fill:#090900; stroke:none;" d="M51 3L51 4L52 4L52 3z"/>
 <path style="fill:#111100; stroke:none;" d="M10 4L10 5L11 5L11 4z"/>
 <path style="fill:#545400; stroke:none;" d="M11 4L11 5L12 5L12 4z"/>
 <path style="fill:#d3d300; stroke:none;" d="M12 4L12 5L13 5L13 4z"/>
 <path style="fill:#fdfd00; stroke:none;" d="M13 4L13 5L14 5L14 4z"/>
 <path style="fill:#fdfd00; stroke:none;" d="M50 4L50 5L51 5L51 4z"/>
 <path style="fill:#d0d000; stroke:none;" d="M51 4L51 5L52 5L52 4z"/>
 <path style="fill:#545400; stroke:none;" d="M52 4L52 5L53 5L53 4z"/>
 <path style="fill:#121200; stroke:none;" d="M53 4L53 5L54 5L54 4z"/>
 <path style="fill:#040400; stroke:none;" d="M8 5L8 6L9 6L9 5z"/>
 <path style="fill:#2d2d00; stroke:none;" d="M9 5L9 6L10 6L10 5z"/>
 <path style="fill:#959500; stroke:none;" d="M10 5L10 6L11 6L11 5z"/>
 <path style="fill:#f2f200; stroke:none;" d="M11 5L11 6L12 6L12 5z"/>
 <path style="fill:#fffe00; stroke:none;" d="M12 5L12 6L13 6L14 6L15 6L16 6L17 6L18 6L19 6L20 6L21 6L22 6L23 6L24 6L25 6L26 6L27 6L28 6L29 6L30 6L31 6L32 6L33 6L34 6L35 6L36 6L37 6L38 6L39 6L40 6L41 6L42 6L43 6L44 6L45 6L46 6L47 6L48 6L49 6L50 6L51 6L52 6L52 5L51 5L50 5L49 5L48 5L47 5L46 5L45 5L44 5L43 5L42 5L41 5L40 5L39 5L38 5L37 5L36 5L35 5L34 5L33 5L32 5L31 5L30 5L29 5L28 5L27 5L26 5L25 5L24 5L23 5L22 5L21 5L20 5L19 5L18 5L17 5L16 5L15 5L14 5L13 5z"/>
 <path style="fill:#f2f200; stroke:none;" d="M52 5L52 6L53 6L53 5z"/>
 <path style="fill:#979700; stroke:none;" d="M53 5L53 6L54 6L54 5z"/>
 <path style="fill:#2c2c00; stroke:none;" d="M54 5L54 6L55 6L55 5z"/>
 <path style="fill:#030300; stroke:none;" d="M55 5L55 6L56 6L56 5z"/>
 <path style="fill:#4f4f00; stroke:none;" d="M8 6L8 7L9 7L9 6z"/>
 <path style="fill:#c6c600; stroke:none;" d="M9 6L9 7L10 7L10 6z"/>
 <path style="fill:#faf900; stroke:none;" d="M10 6L10 7L11 7L11 6z"/>
 <path style="fill:#fffd00; stroke:none;" d="M11 6L11 7L12 7L12 6z"/>
 <path style="fill:#fffc00; stroke:none;" d="M12 6L12 7L13 7L14 7L15 7L16 7L17 7L18 7L19 7L20 7L21 7L22 7L23 7L24 7L25 7L26 7L27 7L28 7L29 7L30 7L31 7L32 7L33 7L34 7L35 7L36 7L37 7L38 7L39 7L40 7L41 7L42 7L43 7L44 7L45 7L46 7L47 7L48 7L49 7L50 7L51 7L52 7L52 6L51 6L50 6L49 6L48 6L47 6L46 6L45 6L44 6L43 6L42 6L41 6L40 6L39 6L38 6L37 6L36 6L35 6L34 6L33 6L32 6L31 6L30 6L29 6L28 6L27 6L26 6L25 6L24 6L23 6L22 6L21 6L20 6L19 6L18 6L17 6L16 6L15 6L14 6L13 6z"/>
 <path style="fill:#fffd00; stroke:none;" d="M52 6L52 7L53 7L53 6z"/>
 <path style="fill:#faf800; stroke:none;" d="M53 6L53 7L54 7L54 6z"/>
 <path style="fill:#c5c500; stroke:none;" d="M54 6L54 7L55 7L55 6z"/>
 <path style="fill:#4c4c00; stroke:none;" d="M55 6L55 7L56 7L56 6z"/>
 <path style="fill:#3c3c00; stroke:none;" d="M7 7L7 8L8 8L8 7z"/>
 <path style="fill:#e4e400; stroke:none;" d="M8 7L8 8L9 8L9 7z"/>
 <path style="fill:#fffd00; stroke:none;" d="M9 7L9 8L10 8L10 7z"/>
 <path style="fill:#fff900; stroke:none;" d="M10 7L10 8L11 8L12 8L13 8L14 8L15 8L16 8L17 8L18 8L19 8L20 8L21 8L22 8L23 8L24 8L25 8L26 8L27 8L28 8L29 8L30 8L30 7L29 7L28 7L27 7L26 7L25 7L24 7L23 7L22 7L21 7L20 7L19 7L18 7L17 7L16 7L15 7L14 7L13 7L12 7L11 7z"/>
 <path style="fill:#fff800; stroke:none;" d="M30 7L30 8L31 8L31 7z"/>
 <path style="fill:#fff700; stroke:none;" d="M31 7L31 8L32 8L33 8L34 8L34 7L33 7L32 7z"/>
 <path style="fill:#fff900; stroke:none;" d="M34 7L34 8L35 8L36 8L37 8L38 8L39 8L40 8L41 8L42 8L43 8L44 8L45 8L46 8L47 8L48 8L49 8L50 8L51 8L52 8L53 8L54 8L54 7L53 7L52 7L51 7L50 7L49 7L48 7L47 7L46 7L45 7L44 7L43 7L42 7L41 7L40 7L39 7L38 7L37 7L36 7L35 7z"/>
 <path style="fill:#fffd00; stroke:none;" d="M54 7L54 8L55 8L55 7z"/>
 <path style="fill:#e1e100; stroke:none;" d="M55 7L55 8L56 8L56 9L57 9L57 8L56 8L56 7z"/>
 <path style="fill:#3b3b00; stroke:none;" d="M56 7L56 8L57 8L57 7z"/>
 <path style="fill:#040400; stroke:none;" d="M5 8L5 9L6 9L6 8z"/>
 <path style="fill:#4e4e00; stroke:none;" d="M6 8L6 9L7 9L7 8z"/>
 <path style="fill:#e3e300; stroke:none;" d="M7 8L7 9L8 9L8 8z"/>
 <path style="fill:#f8f600; stroke:none;" d="M8 8L8 9L9 9L9 8z"/>
 <path style="fill:#f5ef00; stroke:none;" d="M9 8L9 9L10 9L10 8z"/>
 <path style="fill:#f3ee00; stroke:none;" d="M10 8L10 9L11 9L11 8z"/>
 <path style="fill:#f3ef00; stroke:none;" d="M11 8L11 9L12 9L13 9L14 9L15 9L16 9L17 9L18 9L18 8L17 8L16 8L15 8L14 8L13 8L12 8z"/>
 <path style="fill:#f4ef00; stroke:none;" d="M18 8L18 9L19 9L20 9L20 8L19 8z"/>
 <path style="fill:#f6ef00; stroke:none;" d="M20 8L20 9L21 9L21 8z"/>
 <path style="fill:#f9f000; stroke:none;" d="M21 8L21 9L22 9L22 8z"/>
 <path style="fill:#fdf300; stroke:none;" d="M22 8L22 9L23 9L23 8z"/>
 <path style="fill:#fff500; stroke:none;" d="M23 8L23 9L24 9L25 9L26 9L27 9L28 9L29 9L29 8L28 8L27 8L26 8L25 8L24 8z"/>
 <path style="fill:#fff400; stroke:none;" d="M29 8L29 9L30 9L30 8z"/>
 <path style="fill:#fff300; stroke:none;" d="M30 8L30 9L31 9L31 8z"/>
 <path style="fill:#fff200; stroke:none;" d="M31 8L31 9L30 9L29 9L28 9L27 9L26 9L25 9L24 9L23 9L23 10L24 10L25 10L26 10L27 10L28 10L29 10L30 10L31 10L32 10L33 10L34 10L35 10L36 10L37 10L38 10L39 10L40 10L40 9L39 9L38 9L37 9L36 9L35 9L34 9L34 8L33 8L32 8z"/>
 <path style="fill:#fff300; stroke:none;" d="M34 8L34 9L35 9L35 8z"/>
 <path style="fill:#fff400; stroke:none;" d="M35 8L35 9L36 9L36 8z"/>
 <path style="fill:#fff500; stroke:none;" d="M36 8L36 9L37 9L38 9L39 9L40 9L40 8L39 8L38 8L37 8z"/>
 <path style="fill:#fff400; stroke:none;" d="M40 8L40 9L41 9L42 9L42 8L41 8z"/>
 <path style="fill:#fff500; stroke:none;" d="M42 8L42 9L43 9L44 9L45 9L46 9L47 9L48 9L49 9L50 9L51 9L52 9L53 9L54 9L55 9L55 8L54 8L53 8L52 8L51 8L50 8L49 8L48 8L47 8L46 8L45 8L44 8L43 8z"/>
 <path style="fill:#fffc00; stroke:none;" d="M55 8L55 9L56 9L56 8z"/>
 <path style="fill:#4c4c00; stroke:none;" d="M57 8L57 9L58 9L58 8z"/>
 <path style="fill:#030300; stroke:none;" d="M58 8L58 9L59 9L59 8z"/>
 <path style="fill:#2e2e00; stroke:none;" d="M5 9L5 10L6 10L6 9z"/>
 <path style="fill:#c7c700; stroke:none;" d="M6 9L6 10L7 10L7 9z"/>
 <path style="fill:#f4f300; stroke:none;" d="M7 9L7 10L8 10L8 9z"/>
 <path style="fill:#b8cd00; stroke:none;" d="M8 9L8 10L9 10L9 9z"/>
 <path style="fill:#9ac000; stroke:none;" d="M9 9L9 10L10 10L10 9z"/>
 <path style="fill:#8aba00; stroke:none;" d="M10 9L10 10L11 10L11 9z"/>
 <path style="fill:#89ba00; stroke:none;" d="M11 9L11 10L12 10L12 9z"/>
 <path style="fill:#8aba00; stroke:none;" d="M12 9L12 10L13 10L14 10L15 10L16 10L17 10L17 9L16 9L15 9L14 9L13 9z"/>
 <path style="fill:#89ba00; stroke:none;" d="M17 9L17 10L18 10L18 9z"/>
 <path style="fill:#8abb00; stroke:none;" d="M18 9L18 10L19 10L19 9z"/>
 <path style="fill:#92bd00; stroke:none;" d="M19 9L19 10L20 10L20 9z"/>
 <path style="fill:#a6c500; stroke:none;" d="M20 9L20 10L21 10L21 9z"/>
 <path style="fill:#c2d100; stroke:none;" d="M21 9L21 10L22 10L22 9z"/>
 <path style="fill:#ede700; stroke:none;" d="M22 9L22 10L23 10L23 9z"/>
 <path style="fill:#fff000; stroke:none;" d="M40 9L40 10L41 10L41 9z"/>
 <path style="fill:#fff100; stroke:none;" d="M41 9L41 10L42 10L42 9z"/>
 <path style="fill:#fff200; stroke:none;" d="M42 9L42 10L43 10L44 10L45 10L46 10L47 10L48 10L49 10L50 10L51 10L52 10L53 10L54 10L55 10L56 10L56 9L55 9L54 9L53 9L52 9L51 9L50 9L49 9L48 9L47 9L46 9L45 9L44 9L43 9z"/>
 <path style="fill:#fffa00; stroke:none;" d="M56 9L56 10L57 10L57 9z"/>
 <path style="fill:#c5c500; stroke:none;" d="M57 9L57 10L58 10L58 9z"/>
 <path style="fill:#2c2c00; stroke:none;" d="M58 9L58 10L59 10L59 9z"/>
 <path style="fill:#121200; stroke:none;" d="M4 10L4 11L5 11L5 10z"/>
 <path style="fill:#969600; stroke:none;" d="M5 10L5 11L6 11L6 10z"/>
 <path style="fill:#faf400; stroke:none;" d="M6 10L6 11L7 11L7 10z"/>
 <path style="fill:#dbdb00; stroke:none;" d="M7 10L7 11L8 11L8 10z"/>
 <path style="fill:#66a900; stroke:none;" d="M8 10L8 11L9 11L9 10z"/>
 <path style="fill:#299100; stroke:none;" d="M9 10L9 11L10 11L10 10z"/>
 <path style="fill:#158a00; stroke:none;" d="M10 10L10 11L11 11L11 10z"/>
 <path style="fill:#148a00; stroke:none;" d="M11 10L11 11L12 11L12 10z"/>
 <path style="fill:#158a00; stroke:none;" d="M12 10L12 11L13 11L14 11L15 11L16 11L17 11L17 10L16 10L15 10L14 10L13 10z"/>
 <path style="fill:#148a00; stroke:none;" d="M17 10L17 11L18 11L18 10z"/>
 <path style="fill:#158a00; stroke:none;" d="M18 10L18 11L19 11L19 10z"/>
 <path style="fill:#1a8b00; stroke:none;" d="M19 10L19 11L20 11L20 10z"/>
 <path style="fill:#3d9800; stroke:none;" d="M20 10L20 11L21 11L21 10z"/>
 <path style="fill:#71ae00; stroke:none;" d="M21 10L21 11L22 11L22 10z"/>
 <path style="fill:#bccd00; stroke:none;" d="M22 10L22 11L23 11L23 10z"/>
 <path style="fill:#ebe200; stroke:none;" d="M23 10L23 11L24 11L24 10z"/>
 <path style="fill:#ffee00; stroke:none;" d="M24 10L24 11L25 11L26 11L27 11L28 11L29 11L30 11L31 11L32 11L33 11L34 11L35 11L36 11L37 11L38 11L39 11L40 11L41 11L42 11L43 11L44 11L45 11L46 11L47 11L48 11L49 11L50 11L51 11L52 11L53 11L54 11L55 11L56 11L56 10L55 10L54 10L53 10L52 10L51 10L50 10L49 10L48 10L47 10L46 10L45 10L44 10L43 10L42 10L41 10L40 10L39 10L38 10L37 10L36 10L35 10L34 10L33 10L32 10L31 10L30 10L29 10L28 10L27 10L26 10L25 10z"/>
 <path style="fill:#fff000; stroke:none;" d="M56 10L56 11L57 11L57 12L58 12L58 11L57 11L57 10z"/>
 <path style="fill:#faf400; stroke:none;" d="M57 10L57 11L58 11L58 10z"/>
 <path style="fill:#929200; stroke:none;" d="M58 10L58 11L59 11L59 10z"/>
 <path style="fill:#101000; stroke:none;" d="M59 10L59 11L60 11L60 10z"/>
 <path style="fill:#515100; stroke:none;" d="M4 11L4 12L5 12L5 11z"/>
 <path style="fill:#f2ee00; stroke:none;" d="M5 11L5 12L6 12L6 11z"/>
 <path style="fill:#fff000; stroke:none;" d="M6 11L6 12L7 12L7 11z"/>
 <path style="fill:#d1d400; stroke:none;" d="M7 11L7 12L8 12L8 11z"/>
 <path style="fill:#369500; stroke:none;" d="M8 11L8 12L9 12L9 11z"/>
 <path style="fill:#038300; stroke:none;" d="M9 11L9 12L10 12L10 11z"/>
 <path style="fill:#008200; stroke:none;" d="M10 11L10 12L9 12L9 13L9 14L9 15L9 16L9 17L9 18L9 19L9 20L9 21L9 22L9 23L9 24L9 25L9 26L9 27L9 28L9 29L9 30L9 31L9 32L9 33L9 34L9 35L9 36L9 37L9 38L9 39L9 40L9 41L9 42L9 43L9 44L9 45L9 46L9 47L9 48L9 49L9 50L9 51L9 52L9 53L10 53L11 53L12 53L13 53L14 53L15 53L16 53L17 53L18 53L19 53L20 53L21 53L22 53L23 53L23 52L23 51L23 50L23 49L23 48L23 47L23 46L23 45L23 44L23 43L23 42L23 41L23 40L23 39L23 38L23 37L23 36L23 35L23 34L23 33L24 33L25 33L26 33L27 33L28 33L29 33L30 33L31 33L32 33L33 33L34 33L35 33L36 33L37 33L38 33L39 33L40 33L41 33L41 32L40 32L40 31L39 31L39 30L39 29L38 29L38 28L37 28L37 27L37 26L36 26L36 25L36 24L35 24L34 24L34 25L33 25L32 25L32 26L31 26L31 27L30 27L29 27L29 28L28 28L27 28L27 29L26 29L25 29L25 30L24 30L24 31L23 31L23 32L22 32L21 32L21 33L20 33L20 34L20 35L20 36L21 36L21 37L22 37L22 38L22 39L22 40L22 41L22 42L22 43L22 44L22 45L21 45L21 44L20 44L20 43L20 42L19 42L19 41L18 41L18 40L18 39L17 39L17 38L16 38L16 37L16 36L16 35L15 35L15 34L15 33L15 32L15 31L16 31L16 30L16 29L17 29L18 29L18 28L19 28L20 28L21 28L21 27L22 27L22 26L23 26L24 26L24 25L25 25L25 24L26 24L27 24L28 24L28 23L29 23L29 22L30 22L31 22L31 21L32 21L32 20L33 20L34 20L35 20L35 19L34 19L33 19L32 19L31 19L30 19L29 19L28 19L27 19L27 20L26 20L25 20L25 19L24 19L23 19L23 18L23 17L24 17L25 17L25 18L26 18L26 17L25 17L25 16L24 16L24 15L23 15L23 14L22 14L22 15L23 15L23 16L23 17L22 17L21 17L21 16L21 15L20 15L20 14L20 13L21 13L21 12L20 12L19 12L19 11L18 11L17 11L16 11L15 11L14 11L13 11L12 11L11 11z"/>
 <path style="fill:#008000; stroke:none;" d="M19 11L19 12L20 12L20 11z"/>
 <path style="fill:#0b8400; stroke:none;" d="M20 11L20 12L21 12L21 11z"/>
 <path style="fill:#258e00; stroke:none;" d="M21 11L21 12L22 12L22 11z"/>
 <path style="fill:#5ea600; stroke:none;" d="M22 11L22 12L23 12L23 11z"/>
 <path style="fill:#a4c100; stroke:none;" d="M23 11L23 12L24 12L24 11z"/>
 <path style="fill:#eee000; stroke:none;" d="M24 11L24 12L25 12L25 11z"/>
 <path style="fill:#ffeb00; stroke:none;" d="M25 11L25 12L26 12L27 12L28 12L29 12L30 12L31 12L32 12L33 12L34 12L35 12L36 12L37 12L38 12L39 12L40 12L41 12L42 12L43 12L44 12L45 12L46 12L47 12L48 12L49 12L50 12L51 12L52 12L53 12L54 12L55 12L56 12L57 12L57 11L56 11L55 11L54 11L53 11L52 11L51 11L50 11L49 11L48 11L47 11L46 11L45 11L44 11L43 11L42 11L41 11L40 11L39 11L38 11L37 11L36 11L35 11L34 11L33 11L32 11L31 11L30 11L29 11L28 11L27 11L26 11z"/>
 <path style="fill:#f1ed00; stroke:none;" d="M58 11L58 12L59 12L59 11z"/>
 <path style="fill:#535300; stroke:none;" d="M59 11L59 12L60 12L60 11z"/>
 <path style="fill:#0a0a00; stroke:none;" d="M3 12L3 13L4 13L4 12z"/>
 <path style="fill:#d4d300; stroke:none;" d="M4 12L4 13L5 13L5 12z"/>
 <path style="fill:#fff400; stroke:none;" d="M5 12L5 13L6 13L6 12z"/>
 <path style="fill:#ffe800; stroke:none;" d="M6 12L6 13L5 13L5 14L6 14L6 13L7 13L7 12z"/>
 <path style="fill:#cccf00; stroke:none;" d="M7 12L7 13L8 13L8 12z"/>
 <path style="fill:#258f00; stroke:none;" d="M8 12L8 13L9 13L9 12z"/>
 <path style="fill:#018100; stroke:none;" d="M10 12L10 13L10 14L11 14L12 14L12 13L11 13L11 12z"/>
 <path style="fill:#018000; stroke:none;" d="M11 12L11 13L12 13L12 12z"/>
 <path style="fill:#018000; stroke:none;" d="M17 12L17 13L18 13L18 12z"/>
 <path style="fill:#008100; stroke:none;" d="M18 12L18 13L19 13L19 12z"/>
 <path style="fill:#018200; stroke:none;" d="M21 12L21 13L22 13L22 12z"/>
 <path style="fill:#148800; stroke:none;" d="M22 12L22 13L23 13L23 12z"/>
 <path style="fill:#509f00; stroke:none;" d="M23 12L23 13L24 13L24 12z"/>
 <path style="fill:#c2cc00; stroke:none;" d="M24 12L24 13L25 13L25 12z"/>
 <path style="fill:#f8e500; stroke:none;" d="M25 12L25 13L26 13L26 12z"/>
 <path style="fill:#ffe800; stroke:none;" d="M26 12L26 13L27 13L28 13L29 13L30 13L31 13L32 13L33 13L34 13L35 13L36 13L37 13L38 13L39 13L40 13L41 13L42 13L43 13L44 13L45 13L46 13L47 13L48 13L49 13L50 13L51 13L52 13L53 13L54 13L55 13L56 13L57 13L58 13L58 12L57 12L56 12L55 12L54 12L53 12L52 12L51 12L50 12L49 12L48 12L47 12L46 12L45 12L44 12L43 12L42 12L41 12L40 12L39 12L38 12L37 12L36 12L35 12L34 12L33 12L32 12L31 12L30 12L29 12L28 12L27 12z"/>
 <path style="fill:#fff200; stroke:none;" d="M58 12L58 13L59 13L59 12z"/>
 <path style="fill:#d0cf00; stroke:none;" d="M59 12L59 13L60 13L60 12z"/>
 <path style="fill:#090900; stroke:none;" d="M60 12L60 13L61 13L61 12z"/>
 <path style="fill:#535300; stroke:none;" d="M3 13L3 14L4 14L4 13z"/>
 <path style="fill:#fff900; stroke:none;" d="M4 13L4 14L5 14L5 13z"/>
 <path style="fill:#ffe500; stroke:none;" d="M6 13L6 14L7 14L7 13z"/>
 <path style="fill:#cdcd00; stroke:none;" d="M7 13L7 14L8 14L8 13z"/>
 <path style="fill:#279000; stroke:none;" d="M8 13L8 14L9 14L9 13z"/>
 <path style="fill:#018100; stroke:none;" d="M17 13L17 14L18 14L18 13z"/>
 <path style="fill:#008100; stroke:none;" d="M20 13L20 14L21 14L22 14L22 13L21 13z"/>
 <path style="fill:#018100; stroke:none;" d="M22 13L22 14L23 14L23 13z"/>
 <path style="fill:#1b8b00; stroke:none;" d="M23 13L23 14L24 14L24 13z"/>
 <path style="fill:#79ad00; stroke:none;" d="M24 13L24 14L25 14L25 13z"/>
 <path style="fill:#c6ca00; stroke:none;" d="M25 13L25 14L26 14L26 13z"/>
 <path style="fill:#f7e100; stroke:none;" d="M26 13L26 14L27 14L27 13z"/>
 <path style="fill:#ffe500; stroke:none;" d="M27 13L27 14L28 14L29 14L30 14L31 14L32 14L33 14L34 14L35 14L36 14L37 14L38 14L39 14L40 14L41 14L42 14L43 14L44 14L45 14L46 14L47 14L48 14L49 14L50 14L51 14L52 14L53 14L54 14L55 14L56 14L57 14L58 14L58 13L57 13L56 13L55 13L54 13L53 13L52 13L51 13L50 13L49 13L48 13L47 13L46 13L45 13L44 13L43 13L42 13L41 13L40 13L39 13L38 13L37 13L36 13L35 13L34 13L33 13L32 13L31 13L30 13L29 13L28 13z"/>
 <path style="fill:#ffe600; stroke:none;" d="M58 13L58 14L59 14L59 13z"/>
 <path style="fill:#fdf600; stroke:none;" d="M59 13L59 14L60 14L60 13z"/>
 <path style="fill:#535300; stroke:none;" d="M60 13L60 14L61 14L61 13z"/>
 <path style="fill:#080800; stroke:none;" d="M2 14L2 15L3 15L3 14z"/>
 <path style="fill:#b2b200; stroke:none;" d="M3 14L3 15L4 15L4 14z"/>
 <path style="fill:#ffed00; stroke:none;" d="M4 14L4 15L5 15L5 14z"/>
 <path style="fill:#ffe200; stroke:none;" d="M5 14L5 15L6 15L7 15L7 14L6 14z"/>
 <path style="fill:#cdcb00; stroke:none;" d="M7 14L7 15L8 15L8 14z"/>
 <path style="fill:#289000; stroke:none;" d="M8 14L8 15L9 15L9 14z"/>
 <path style="fill:#018000; stroke:none;" d="M20 14L20 15L21 15L21 14z"/>
 <path style="fill:#018100; stroke:none;" d="M21 14L21 15L22 15L22 14z"/>
 <path style="fill:#048300; stroke:none;" d="M23 14L23 15L24 15L24 14z"/>
 <path style="fill:#2e9000; stroke:none;" d="M24 14L24 15L25 15L25 14z"/>
 <path style="fill:#7bab00; stroke:none;" d="M25 14L25 15L26 15L26 14z"/>
 <path style="fill:#cccb00; stroke:none;" d="M26 14L26 15L27 15L27 14z"/>
 <path style="fill:#f9df00; stroke:none;" d="M27 14L27 15L28 15L28 14z"/>
 <path style="fill:#ffe200; stroke:none;" d="M28 14L28 15L29 15L30 15L31 15L32 15L33 15L34 15L35 15L36 15L37 15L38 15L39 15L40 15L41 15L42 15L43 15L44 15L45 15L46 15L47 15L48 15L49 15L50 15L51 15L52 15L53 15L54 15L55 15L56 15L57 15L58 15L59 15L59 14L58 14L57 14L56 14L55 14L54 14L53 14L52 14L51 14L50 14L49 14L48 14L47 14L46 14L45 14L44 14L43 14L42 14L41 14L40 14L39 14L38 14L37 14L36 14L35 14L34 14L33 14L32 14L31 14L30 14L29 14z"/>
 <path style="fill:#ffec00; stroke:none;" d="M59 14L59 15L60 15L60 14z"/>
 <path style="fill:#b2b200; stroke:none;" d="M60 14L60 15L61 15L61 14z"/>
 <path style="fill:#0b0a00; stroke:none;" d="M61 14L61 15L62 15L62 14z"/>
 <path style="fill:#373700; stroke:none;" d="M2 15L2 16L3 16L3 15z"/>
 <path style="fill:#dfda00; stroke:none;" d="M3 15L3 16L4 16L4 15z"/>
 <path style="fill:#ffe000; stroke:none;" d="M4 15L4 16L5 16L5 15z"/>
 <path style="fill:#ffdf00; stroke:none;" d="M5 15L5 16L6 16L7 16L7 15L6 15z"/>
 <path style="fill:#cdc800; stroke:none;" d="M7 15L7 16L8 16L8 15z"/>
 <path style="fill:#288f00; stroke:none;" d="M8 15L8 16L8 17L9 17L9 16L9 15z"/>
 <path style="fill:#008100; stroke:none;" d="M21 15L21 16L21 17L22 17L22 16L22 15z"/>
 <path style="fill:#018000; stroke:none;" d="M22 15L22 16L22 17L23 17L23 16L23 15z"/>
 <path style="fill:#068300; stroke:none;" d="M24 15L24 16L25 16L25 15z"/>
 <path style="fill:#349100; stroke:none;" d="M25 15L25 16L26 16L26 15z"/>
 <path style="fill:#87ae00; stroke:none;" d="M26 15L26 16L27 16L27 15z"/>
 <path style="fill:#d3ca00; stroke:none;" d="M27 15L27 16L28 16L28 15z"/>
 <path style="fill:#ffdf00; stroke:none;" d="M28 15L28 16L29 16L30 16L31 16L32 16L33 16L34 16L35 16L36 16L37 16L38 16L39 16L40 16L41 16L42 16L43 16L44 16L45 16L46 16L47 16L48 16L49 16L50 16L51 16L52 16L53 16L54 16L55 16L56 16L57 16L58 16L59 16L59 15L58 15L57 15L56 15L55 15L54 15L53 15L52 15L51 15L50 15L49 15L48 15L47 15L46 15L45 15L44 15L43 15L42 15L41 15L40 15L39 15L38 15L37 15L36 15L35 15L34 15L33 15L32 15L31 15L30 15L29 15z"/>
 <path style="fill:#ffe000; stroke:none;" d="M59 15L59 16L60 16L60 15z"/>
 <path style="fill:#dcd800; stroke:none;" d="M60 15L60 16L61 16L61 15z"/>
 <path style="fill:#373600; stroke:none;" d="M61 15L61 16L62 16L62 15z"/>
 <path style="fill:#7d7a00; stroke:none;" d="M2 16L2 17L3 17L3 16z"/>
 <path style="fill:#f6e400; stroke:none;" d="M3 16L3 17L4 17L4 16z"/>
 <path style="fill:#ffdb00; stroke:none;" d="M4 16L4 17L5 17L6 17L7 17L7 16L6 16L5 16z"/>
 <path style="fill:#cdc500; stroke:none;" d="M7 16L7 17L8 17L8 16z"/>
 <path style="fill:#038200; stroke:none;" d="M25 16L25 17L26 17L26 16z"/>
 <path style="fill:#288d00; stroke:none;" d="M26 16L26 17L27 17L27 16z"/>
 <path style="fill:#95b100; stroke:none;" d="M27 16L27 17L28 17L28 16z"/>
 <path style="fill:#f1d500; stroke:none;" d="M28 16L28 17L29 17L29 16z"/>
 <path style="fill:#f3d600; stroke:none;" d="M29 16L29 17L30 17L30 16z"/>
 <path style="fill:#f4d600; stroke:none;" d="M30 16L30 17L31 17L31 16z"/>
 <path style="fill:#f3d600; stroke:none;" d="M31 16L31 17L32 17L33 17L34 17L35 17L36 17L37 17L38 17L39 17L40 17L41 17L42 17L43 17L44 17L45 17L46 17L47 17L48 17L49 17L50 17L51 17L52 17L53 17L54 17L55 17L55 16L54 16L53 16L52 16L51 16L50 16L49 16L48 16L47 16L46 16L45 16L44 16L43 16L42 16L41 16L40 16L39 16L38 16L37 16L36 16L35 16L34 16L33 16L32 16z"/>
 <path style="fill:#f5d700; stroke:none;" d="M55 16L55 17L56 17L56 16z"/>
 <path style="fill:#ffdb00; stroke:none;" d="M56 16L56 17L57 17L58 17L59 17L60 17L60 16L59 16L58 16L57 16z"/>
 <path style="fill:#f6e500; stroke:none;" d="M60 16L60 17L61 17L61 16z"/>
 <path style="fill:#7e7a00; stroke:none;" d="M61 16L61 17L62 17L62 16z"/>
 <path style="fill:#0c0c00; stroke:none;" d="M1 17L1 18L2 18L2 17z"/>
 <path style="fill:#a6a000; stroke:none;" d="M2 17L2 18L3 18L3 17z"/>
 <path style="fill:#ffe300; stroke:none;" d="M3 17L3 18L4 18L4 17z"/>
 <path style="fill:#ffd800; stroke:none;" d="M4 17L4 18L5 18L6 18L7 18L7 17L6 17L5 17z"/>
 <path style="fill:#cdc200; stroke:none;" d="M7 17L7 18L8 18L8 17z"/>
 <path style="fill:#288e00; stroke:none;" d="M8 17L8 18L9 18L9 17z"/>
 <path style="fill:#018000; stroke:none;" d="M23 17L23 18L24 18L25 18L25 17L24 17z"/>
 <path style="fill:#098400; stroke:none;" d="M26 17L26 18L27 18L27 17z"/>
 <path style="fill:#479700; stroke:none;" d="M27 17L27 18L28 18L28 17z"/>
 <path style="fill:#7ea900; stroke:none;" d="M28 17L28 18L29 18L29 17z"/>
 <path style="fill:#89ac00; stroke:none;" d="M29 17L29 18L30 18L30 17z"/>
 <path style="fill:#8aac00; stroke:none;" d="M30 17L30 18L31 18L31 17z"/>
 <path style="fill:#89ac00; stroke:none;" d="M31 17L31 18L32 18L33 18L34 18L35 18L36 18L37 18L38 18L39 18L40 18L41 18L42 18L43 18L44 18L45 18L46 18L47 18L48 18L49 18L50 18L51 18L52 18L53 18L53 17L52 17L51 17L50 17L49 17L48 17L47 17L46 17L45 17L44 17L43 17L42 17L41 17L40 17L39 17L38 17L37 17L36 17L35 17L34 17L33 17L32 17z"/>
 <path style="fill:#88ac00; stroke:none;" d="M53 17L53 18L54 18L54 17z"/>
 <path style="fill:#84ab00; stroke:none;" d="M54 17L54 18L55 18L55 17z"/>
 <path style="fill:#9bb200; stroke:none;" d="M55 17L55 18L56 18L56 17z"/>
 <path style="fill:#efd100; stroke:none;" d="M56 17L56 18L57 18L57 17z"/>
 <path style="fill:#ffd800; stroke:none;" d="M57 17L57 18L58 18L59 18L60 18L60 17L59 17L58 17z"/>
 <path style="fill:#ffe100; stroke:none;" d="M60 17L60 18L61 18L61 17z"/>
 <path style="fill:#a29c00; stroke:none;" d="M61 17L61 18L62 18L62 17z"/>
 <path style="fill:#0c0c00; stroke:none;" d="M62 17L62 18L63 18L63 17z"/>
 <path style="fill:#2f2c00; stroke:none;" d="M1 18L1 19L2 19L2 18z"/>
 <path style="fill:#c8bc00; stroke:none;" d="M2 18L2 19L3 19L3 18z"/>
 <path style="fill:#ffda00; stroke:none;" d="M3 18L3 19L4 19L4 18z"/>
 <path style="fill:#ffd500; stroke:none;" d="M4 18L4 19L3 19L3 20L4 20L4 19L5 19L6 19L7 19L7 18L6 18L5 18z"/>
 <path style="fill:#cdc000; stroke:none;" d="M7 18L7 19L8 19L8 18z"/>
 <path style="fill:#288d00; stroke:none;" d="M8 18L8 19L8 20L9 20L9 19L9 18z"/>
 <path style="fill:#008100; stroke:none;" d="M23 18L23 19L24 19L25 19L25 18L24 18z"/>
 <path style="fill:#018100; stroke:none;" d="M25 18L25 19L26 19L26 18z"/>
 <path style="fill:#028200; stroke:none;" d="M26 18L26 19L27 19L27 18z"/>
 <path style="fill:#0a8400; stroke:none;" d="M27 18L27 19L28 19L28 18z"/>
 <path style="fill:#138700; stroke:none;" d="M28 18L28 19L29 19L29 18z"/>
 <path style="fill:#148800; stroke:none;" d="M29 18L29 19L30 19L30 18z"/>
 <path style="fill:#158800; stroke:none;" d="M30 18L30 19L31 19L32 19L33 19L34 19L35 19L36 19L37 19L38 19L39 19L40 19L41 19L42 19L43 19L44 19L45 19L46 19L47 19L48 19L49 19L50 19L51 19L52 19L53 19L53 18L52 18L51 18L50 18L49 18L48 18L47 18L46 18L45 18L44 18L43 18L42 18L41 18L40 18L39 18L38 18L37 18L36 18L35 18L34 18L33 18L32 18L31 18z"/>
 <path style="fill:#148800; stroke:none;" d="M53 18L53 19L54 19L54 18z"/>
 <path style="fill:#118600; stroke:none;" d="M54 18L54 19L55 19L55 18z"/>
 <path style="fill:#349000; stroke:none;" d="M55 18L55 19L56 19L56 18z"/>
 <path style="fill:#d0c100; stroke:none;" d="M56 18L56 19L57 19L57 18z"/>
 <path style="fill:#ffd500; stroke:none;" d="M57 18L57 19L58 19L59 19L60 19L60 20L61 20L61 19L60 19L60 18L59 18L58 18z"/>
 <path style="fill:#ffda00; stroke:none;" d="M60 18L60 19L61 19L61 18z"/>
 <path style="fill:#c6b800; stroke:none;" d="M61 18L61 19L62 19L62 18z"/>
 <path style="fill:#2d2b00; stroke:none;" d="M62 18L62 19L63 19L63 18z"/>
 <path style="fill:#484400; stroke:none;" d="M1 19L1 20L2 20L2 19z"/>
 <path style="fill:#e1cd00; stroke:none;" d="M2 19L2 20L3 20L3 19z"/>
 <path style="fill:#ffd200; stroke:none;" d="M4 19L4 20L5 20L6 20L7 20L7 19L6 19L5 19z"/>
 <path style="fill:#cdbe00; stroke:none;" d="M7 19L7 20L8 20L8 19z"/>
 <path style="fill:#018000; stroke:none;" d="M25 19L25 20L26 20L26 19z"/>
 <path style="fill:#008100; stroke:none;" d="M26 19L26 20L27 20L27 19z"/>
 <path style="fill:#3d9f3d; stroke:none;" d="M35 19L35 20L36 20L36 19z"/>
 <path style="fill:#54ab54; stroke:none;" d="M36 19L36 20L37 20L37 19z"/>
 <path style="fill:#0e890e; stroke:none;" d="M37 19L37 20L38 20L38 19z"/>
 <path style="fill:#008200; stroke:none;" d="M38 19L38 20L39 20L39 21L40 21L40 22L40 23L40 24L41 24L41 25L42 25L42 26L42 27L43 27L43 28L44 28L44 29L44 30L44 31L45 31L45 32L44 32L44 33L45 33L46 33L47 33L48 33L49 33L49 34L49 35L49 36L49 37L49 38L49 39L49 40L49 41L49 42L49 43L49 44L49 45L49 46L49 47L49 48L49 49L49 50L49 51L49 52L49 53L50 53L51 53L52 53L53 53L54 53L55 53L55 52L55 51L55 50L55 49L55 48L55 47L55 46L55 45L55 44L55 43L55 42L55 41L55 40L55 39L55 38L55 37L55 36L55 35L55 34L55 33L55 32L55 31L55 30L55 29L55 28L55 27L55 26L55 25L55 24L55 23L55 22L55 21L55 20L55 19L54 19L53 19L52 19L51 19L50 19L49 19L48 19L47 19L46 19L45 19L44 19L43 19L42 19L41 19L40 19L39 19z"/>
 <path style="fill:#258c00; stroke:none;" d="M55 19L55 20L56 20L56 19z"/>
 <path style="fill:#cdbe00; stroke:none;" d="M56 19L56 20L57 20L57 19z"/>
 <path style="fill:#ffd200; stroke:none;" d="M57 19L57 20L58 20L59 20L60 20L60 19L59 19L58 19z"/>
 <path style="fill:#e0cb00; stroke:none;" d="M61 19L61 20L62 20L62 19z"/>
 <path style="fill:#464200; stroke:none;" d="M62 19L62 20L63 20L63 19z"/>
 <path style="fill:#020100; stroke:none;" d="M0 20L0 21L1 21L1 20z"/>
 <path style="fill:#6a6300; stroke:none;" d="M1 20L1 21L2 21L2 20z"/>
 <path style="fill:#ffdf00; stroke:none;" d="M2 20L2 21L3 21L3 20z"/>
 <path style="fill:#ffd000; stroke:none;" d="M3 20L3 21L4 21L4 20z"/>
 <path style="fill:#ffcf00; stroke:none;" d="M4 20L4 21L5 21L6 21L7 21L7 20L6 20L5 20z"/>
 <path style="fill:#cdbc00; stroke:none;" d="M7 20L7 21L8 21L8 20z"/>
 <path style="fill:#288c00; stroke:none;" d="M8 20L8 21L8 22L8 23L9 23L9 22L9 21L9 20z"/>
 <path style="fill:#0c880c; stroke:none;" d="M32 20L32 21L33 21L33 20z"/>
 <path style="fill:#3ea03e; stroke:none;" d="M33 20L33 21L34 21L34 20z"/>
 <path style="fill:#b1d8b1; stroke:none;" d="M34 20L34 21L35 21L35 20z"/>
 <path style="fill:#f8fcf8; stroke:none;" d="M35 20L35 21L36 21L36 20z"/>
 <path style="fill:#fbfdfb; stroke:none;" d="M36 20L36 21L37 21L37 20z"/>
 <path style="fill:#a6d3a6; stroke:none;" d="M37 20L37 21L38 21L38 20z"/>
 <path style="fill:#178d17; stroke:none;" d="M38 20L38 21L39 21L39 20z"/>
 <path style="fill:#2b8d00; stroke:none;" d="M55 20L55 21L55 22L56 22L56 21L56 20z"/>
 <path style="fill:#cebc00; stroke:none;" d="M56 20L56 21L57 21L57 20z"/>
 <path style="fill:#ffcf00; stroke:none;" d="M57 20L57 21L58 21L59 21L60 21L60 20L59 20L58 20z"/>
 <path style="fill:#ffd100; stroke:none;" d="M60 20L60 21L61 21L61 20z"/>
 <path style="fill:#ffe000; stroke:none;" d="M61 20L61 21L62 21L62 20z"/>
 <path style="fill:#676000; stroke:none;" d="M62 20L62 21L63 21L63 20z"/>
 <path style="fill:#020200; stroke:none;" d="M63 20L63 21L64 21L64 20z"/>
 <path style="fill:#0a0a00; stroke:none;" d="M0 21L0 22L1 22L1 21z"/>
 <path style="fill:#857a00; stroke:none;" d="M1 21L1 22L2 22L2 21z"/>
 <path style="fill:#ffd900; stroke:none;" d="M2 21L2 22L3 22L3 21z"/>
 <path style="fill:#ffcd00; stroke:none;" d="M3 21L3 22L4 22L4 21z"/>
 <path style="fill:#ffcc00; stroke:none;" d="M4 21L4 22L5 22L6 22L7 22L7 21L6 21L5 21z"/>
 <path style="fill:#cdb900; stroke:none;" d="M7 21L7 22L8 22L8 21z"/>
 <path style="fill:#289628; stroke:none;" d="M31 21L31 22L32 22L32 21z"/>
 <path style="fill:#8ac68a; stroke:none;" d="M32 21L32 22L33 22L33 21z"/>
 <path style="fill:#e8f3e8; stroke:none;" d="M33 21L33 22L34 22L34 21z"/>
 <path style="fill:#ffffff; stroke:none;" d="M34 21L34 22L33 22L32 22L32 23L32 24L33 24L33 23L34 23L34 22L35 22L36 22L37 22L37 23L37 24L38 24L38 25L39 25L39 24L38 24L38 23L38 22L37 22L37 21L36 21L35 21z"/>
 <path style="fill:#ebf5eb; stroke:none;" d="M37 21L37 22L38 22L38 21z"/>
 <path style="fill:#60b160; stroke:none;" d="M38 21L38 22L39 22L39 21z"/>
 <path style="fill:#058405; stroke:none;" d="M39 21L39 22L40 22L40 21z"/>
 <path style="fill:#ceb900; stroke:none;" d="M56 21L56 22L57 22L57 21z"/>
 <path style="fill:#ffcc00; stroke:none;" d="M57 21L57 22L58 22L59 22L60 22L61 22L61 21L60 21L59 21L58 21z"/>
 <path style="fill:#ffd900; stroke:none;" d="M61 21L61 22L62 22L62 21z"/>
 <path style="fill:#867b00; stroke:none;" d="M62 21L62 22L63 22L63 21z"/>
 <path style="fill:#0c0b00; stroke:none;" d="M63 21L63 22L64 22L64 21z"/>
 <path style="fill:#151300; stroke:none;" d="M0 22L0 23L1 23L1 22z"/>
 <path style="fill:#a49300; stroke:none;" d="M1 22L1 23L2 23L2 22z"/>
 <path style="fill:#ffd400; stroke:none;" d="M2 22L2 23L3 23L3 22z"/>
 <path style="fill:#ffca00; stroke:none;" d="M3 22L3 23L4 23L5 23L6 23L7 23L7 22L6 22L5 22L4 22z"/>
 <path style="fill:#cdb700; stroke:none;" d="M7 22L7 23L8 23L8 22z"/>
 <path style="fill:#178d17; stroke:none;" d="M29 22L29 23L30 23L30 22z"/>
 <path style="fill:#6cb76c; stroke:none;" d="M30 22L30 23L31 23L31 22z"/>
 <path style="fill:#bfdfbf; stroke:none;" d="M31 22L31 23L32 23L32 22z"/>
 <path style="fill:#fafcfa; stroke:none;" d="M34 22L34 23L35 23L35 22z"/>
 <path style="fill:#b9dcb9; stroke:none;" d="M35 22L35 23L36 23L36 22z"/>
 <path style="fill:#f8fbf8; stroke:none;" d="M36 22L36 23L37 23L37 22z"/>
 <path style="fill:#bedfbe; stroke:none;" d="M38 22L38 23L39 23L39 22z"/>
 <path style="fill:#1c901c; stroke:none;" d="M39 22L39 23L40 23L40 22z"/>
 <path style="fill:#2b8c00; stroke:none;" d="M55 22L55 23L56 23L56 22z"/>
 <path style="fill:#ceb700; stroke:none;" d="M56 22L56 23L57 23L57 22z"/>
 <path style="fill:#ffca00; stroke:none;" d="M57 22L57 23L58 23L59 23L60 23L61 23L61 22L60 22L59 22L58 22z"/>
 <path style="fill:#ffd400; stroke:none;" d="M61 22L61 23L62 23L62 22z"/>
 <path style="fill:#a49300; stroke:none;" d="M62 22L62 23L63 23L63 22z"/>
 <path style="fill:#151300; stroke:none;" d="M63 22L63 23L64 23L64 22z"/>
 <path style="fill:#1b1800; stroke:none;" d="M0 23L0 24L1 24L1 23z"/>
 <path style="fill:#b69f00; stroke:none;" d="M1 23L1 24L2 24L2 23z"/>
 <path style="fill:#ffd000; stroke:none;" d="M2 23L2 24L3 24L3 23z"/>
 <path style="fill:#ffc700; stroke:none;" d="M3 23L3 24L4 24L5 24L6 24L7 24L7 23L6 23L5 23L4 23z"/>
 <path style="fill:#cdb400; stroke:none;" d="M7 23L7 24L8 24L8 23z"/>
 <path style="fill:#288b00; stroke:none;" d="M8 23L8 24L8 25L9 25L9 24L9 23z"/>
 <path style="fill:#4aa64a; stroke:none;" d="M28 23L28 24L29 24L29 23z"/>
 <path style="fill:#bbddbb; stroke:none;" d="M29 23L29 24L30 24L30 23z"/>
 <path style="fill:#f0f7f0; stroke:none;" d="M30 23L30 24L31 24L31 23z"/>
 <path style="fill:#fefffe; stroke:none;" d="M31 23L31 24L32 24L32 23z"/>
 <path style="fill:#dbeddb; stroke:none;" d="M33 23L33 24L34 24L34 23z"/>
 <path style="fill:#60b160; stroke:none;" d="M34 23L34 24L35 24L35 23z"/>
 <path style="fill:#1d901d; stroke:none;" d="M35 23L35 24L36 24L36 23z"/>
 <path style="fill:#add7ad; stroke:none;" d="M36 23L36 24L37 24L37 23z"/>
 <path style="fill:#f9fcf9; stroke:none;" d="M38 23L38 24L39 24L39 23z"/>
 <path style="fill:#6bb66b; stroke:none;" d="M39 23L39 24L40 24L40 23z"/>
 <path style="fill:#2b8b00; stroke:none;" d="M55 23L55 24L55 25L55 26L56 26L56 25L56 24L56 23z"/>
 <path style="fill:#ceb500; stroke:none;" d="M56 23L56 24L57 24L57 23z"/>
 <path style="fill:#ffc700; stroke:none;" d="M57 23L57 24L58 24L59 24L60 24L61 24L61 23L60 23L59 23L58 23z"/>
 <path style="fill:#ffcf00; stroke:none;" d="M61 23L61 24L62 24L62 23z"/>
 <path style="fill:#b8a100; stroke:none;" d="M62 23L62 24L63 24L63 23z"/>
 <path style="fill:#1c1900; stroke:none;" d="M63 23L63 24L64 24L64 23z"/>
 <path style="fill:#262200; stroke:none;" d="M0 24L0 25L1 25L1 24z"/>
 <path style="fill:#d8b900; stroke:none;" d="M1 24L1 25L2 25L2 24z"/>
 <path style="fill:#ffc900; stroke:none;" d="M2 24L2 25L3 25L3 24z"/>
 <path style="fill:#ffc300; stroke:none;" d="M3 24L3 25L4 25L5 25L6 25L7 25L7 24L6 24L5 24L4 24z"/>
 <path style="fill:#cdb200; stroke:none;" d="M7 24L7 25L8 25L8 24z"/>
 <path style="fill:#0a870a; stroke:none;" d="M25 24L25 25L26 25L26 24z"/>
 <path style="fill:#349b34; stroke:none;" d="M26 24L26 25L27 25L27 24z"/>
 <path style="fill:#a6d3a6; stroke:none;" d="M27 24L27 25L28 25L28 24z"/>
 <path style="fill:#fdfefd; stroke:none;" d="M28 24L28 25L27 25L27 26L28 26L28 25L29 25L29 24z"/>
 <path style="fill:#ffffff; stroke:none;" d="M29 24L29 25L30 25L30 24z"/>
 <path style="fill:#fbfdfb; stroke:none;" d="M30 24L30 25L31 25L31 24z"/>
 <path style="fill:#e2f0e2; stroke:none;" d="M31 24L31 25L32 25L32 24z"/>
 <path style="fill:#80c180; stroke:none;" d="M32 24L32 25L33 25L33 24z"/>
 <path style="fill:#108a10; stroke:none;" d="M33 24L33 25L34 25L34 24z"/>
 <path style="fill:#299629; stroke:none;" d="M36 24L36 25L37 25L37 24z"/>
 <path style="fill:#daedda; stroke:none;" d="M37 24L37 25L38 25L38 24z"/>
 <path style="fill:#f2f8f2; stroke:none;" d="M39 24L39 25L40 25L40 24z"/>
 <path style="fill:#158c15; stroke:none;" d="M40 24L40 25L41 25L41 24z"/>
 <path style="fill:#ceb200; stroke:none;" d="M56 24L56 25L57 25L57 24z"/>
 <path style="fill:#ffc300; stroke:none;" d="M57 24L57 25L58 25L59 25L60 25L61 25L61 24L60 24L59 24L58 24z"/>
 <path style="fill:#ffc900; stroke:none;" d="M61 24L61 25L62 25L62 24z"/>
 <path style="fill:#d8b800; stroke:none;" d="M62 24L62 25L63 25L63 24z"/>
 <path style="fill:#262200; stroke:none;" d="M63 24L63 25L64 25L64 24z"/>
 <path style="fill:#282200; stroke:none;" d="M0 25L0 26L1 26L1 25z"/>
 <path style="fill:#deba00; stroke:none;" d="M1 25L1 26L2 26L2 25z"/>
 <path style="fill:#ffc600; stroke:none;" d="M2 25L2 26L3 26L3 25z"/>
 <path style="fill:#ffc000; stroke:none;" d="M3 25L3 26L4 26L5 26L6 26L7 26L7 25L6 25L5 25L4 25z"/>
 <path style="fill:#cdaf00; stroke:none;" d="M7 25L7 26L8 26L8 25z"/>
 <path style="fill:#288a00; stroke:none;" d="M8 25L8 26L9 26L9 25z"/>
 <path style="fill:#2f992f; stroke:none;" d="M24 25L24 26L25 26L25 25z"/>
 <path style="fill:#7cbf7c; stroke:none;" d="M25 25L25 26L26 26L26 25z"/>
 <path style="fill:#daedda; stroke:none;" d="M26 25L26 26L27 26L27 25z"/>
 <path style="fill:#fefefe; stroke:none;" d="M28 25L28 26L29 26L29 25z"/>
 <path style="fill:#e7f3e7; stroke:none;" d="M29 25L29 26L30 26L30 25z"/>
 <path style="fill:#a3d1a3; stroke:none;" d="M30 25L30 26L31 26L31 25z"/>
 <path style="fill:#41a141; stroke:none;" d="M31 25L31 26L32 26L32 25z"/>
 <path style="fill:#088608; stroke:none;" d="M36 25L36 26L37 26L37 25z"/>
 <path style="fill:#75bb75; stroke:none;" d="M37 25L37 26L38 26L38 25z"/>
 <path style="fill:#f5faf5; stroke:none;" d="M38 25L38 26L39 26L39 25z"/>
 <path style="fill:#fefffe; stroke:none;" d="M39 25L39 26L40 26L40 25z"/>
 <path style="fill:#96cb96; stroke:none;" d="M40 25L40 26L41 26L41 25z"/>
 <path style="fill:#078607; stroke:none;" d="M41 25L41 26L42 26L42 25z"/>
 <path style="fill:#ceaf00; stroke:none;" d="M56 25L56 26L57 26L57 25z"/>
 <path style="fill:#ffc000; stroke:none;" d="M57 25L57 26L58 26L59 26L60 26L61 26L61 25L60 25L59 25L58 25z"/>
 <path style="fill:#ffc500; stroke:none;" d="M61 25L61 26L62 26L62 25z"/>
 <path style="fill:#e0bb00; stroke:none;" d="M62 25L62 26L63 26L63 25z"/>
 <path style="fill:#292300; stroke:none;" d="M63 25L63 26L64 26L64 25z"/>
 <path style="fill:#302800; stroke:none;" d="M0 26L0 27L1 27L1 26z"/>
 <path style="fill:#f5c900; stroke:none;" d="M1 26L1 27L2 27L2 26z"/>
 <path style="fill:#ffc200; stroke:none;" d="M2 26L2 27L3 27L3 26z"/>
 <path style="fill:#ffbe00; stroke:none;" d="M3 26L3 27L2 27L2 28L3 28L3 27L4 27L5 27L6 27L7 27L7 26L6 26L5 26L4 26z"/>
 <path style="fill:#cdad00; stroke:none;" d="M7 26L7 27L8 27L8 26z"/>
 <path style="fill:#288900; stroke:none;" d="M8 26L8 27L8 28L8 29L9 29L9 28L9 27L9 26z"/>
 <path style="fill:#168d16; stroke:none;" d="M22 26L22 27L23 27L23 26z"/>
 <path style="fill:#63b263; stroke:none;" d="M23 26L23 27L24 27L24 26z"/>
 <path style="fill:#c9e4c9; stroke:none;" d="M24 26L24 27L25 27L25 26z"/>
 <path style="fill:#f7fbf7; stroke:none;" d="M25 26L25 27L26 27L26 26z"/>
 <path style="fill:#ffffff; stroke:none;" d="M26 26L26 27L25 27L24 27L24 28L25 28L26 28L26 27L27 27L28 27L28 26L27 26z"/>
 <path style="fill:#b1d9b1; stroke:none;" d="M28 26L28 27L29 27L29 26z"/>
 <path style="fill:#4fa94f; stroke:none;" d="M29 26L29 27L30 27L30 26z"/>
 <path style="fill:#148c14; stroke:none;" d="M30 26L30 27L31 27L31 26z"/>
 <path style="fill:#279527; stroke:none;" d="M37 26L37 27L38 27L38 26z"/>
 <path style="fill:#c1e1c1; stroke:none;" d="M38 26L38 27L39 27L39 26z"/>
 <path style="fill:#ffffff; stroke:none;" d="M39 26L39 27L40 27L40 26z"/>
 <path style="fill:#e4f2e4; stroke:none;" d="M40 26L40 27L41 27L41 26z"/>
 <path style="fill:#4aa64a; stroke:none;" d="M41 26L41 27L42 27L42 26z"/>
 <path style="fill:#2b8a00; stroke:none;" d="M55 26L55 27L55 28L55 29L56 29L56 28L56 27L56 26z"/>
 <path style="fill:#cead00; stroke:none;" d="M56 26L56 27L57 27L57 26z"/>
 <path style="fill:#ffbe00; stroke:none;" d="M57 26L57 27L58 27L59 27L60 27L61 27L61 28L62 28L62 27L61 27L61 26L60 26L59 26L58 26z"/>
 <path style="fill:#ffc100; stroke:none;" d="M61 26L61 27L62 27L62 26z"/>
 <path style="fill:#f7cb00; stroke:none;" d="M62 26L62 27L63 27L63 26z"/>
 <path style="fill:#302900; stroke:none;" d="M63 26L63 27L64 27L64 26z"/>
 <path style="fill:#332b00; stroke:none;" d="M0 27L0 28L1 28L1 27z"/>
 <path style="fill:#ffcf00; stroke:none;" d="M1 27L1 28L2 28L2 27z"/>
 <path style="fill:#ffbb00; stroke:none;" d="M3 27L3 28L4 28L5 28L6 28L7 28L7 27L6 27L5 27L4 27z"/>
 <path style="fill:#cdab00; stroke:none;" d="M7 27L7 28L8 28L8 27z"/>
 <path style="fill:#339b33; stroke:none;" d="M21 27L21 28L22 28L22 27z"/>
 <path style="fill:#b4dab4; stroke:none;" d="M22 27L22 28L23 28L23 27z"/>
 <path style="fill:#edf6ed; stroke:none;" d="M23 27L23 28L24 28L24 27z"/>
 <path style="fill:#e0f0e0; stroke:none;" d="M26 27L26 28L27 28L27 27z"/>
 <path style="fill:#70b970; stroke:none;" d="M27 27L27 28L28 28L28 27z"/>
 <path style="fill:#1a8f1a; stroke:none;" d="M28 27L28 28L29 28L29 27z"/>
 <path style="fill:#028302; stroke:none;" d="M37 27L37 28L38 28L38 27z"/>
 <path style="fill:#68b568; stroke:none;" d="M38 27L38 28L39 28L39 27z"/>
 <path style="fill:#eef7ee; stroke:none;" d="M39 27L39 28L40 28L40 27z"/>
 <path style="fill:#fcfefc; stroke:none;" d="M40 27L40 28L41 28L41 27z"/>
 <path style="fill:#a3d1a3; stroke:none;" d="M41 27L41 28L42 28L42 27z"/>
 <path style="fill:#138b13; stroke:none;" d="M42 27L42 28L43 28L43 27z"/>
 <path style="fill:#ceab00; stroke:none;" d="M56 27L56 28L57 28L57 27z"/>
 <path style="fill:#ffbb00; stroke:none;" d="M57 27L57 28L58 28L59 28L60 28L61 28L61 27L60 27L59 27L58 27z"/>
 <path style="fill:#ffcf00; stroke:none;" d="M62 27L62 28L63 28L63 27z"/>
 <path style="fill:#332b00; stroke:none;" d="M63 27L63 28L64 28L64 27z"/>
 <path style="fill:#332a00; stroke:none;" d="M0 28L0 29L0 30L1 30L1 29L1 28z"/>
 <path style="fill:#ffcb00; stroke:none;" d="M1 28L1 29L2 29L2 28z"/>
 <path style="fill:#ffba00; stroke:none;" d="M2 28L2 29L3 29L3 28z"/>
 <path style="fill:#ffb800; stroke:none;" d="M3 28L3 29L2 29L2 30L3 30L3 29L4 29L5 29L6 29L7 29L7 28L6 28L5 28L4 28z"/>
 <path style="fill:#cdaa00; stroke:none;" d="M7 28L7 29L8 29L8 28z"/>
 <path style="fill:#098609; stroke:none;" d="M18 28L18 29L19 29L19 28z"/>
 <path style="fill:#269526; stroke:none;" d="M19 28L19 29L20 29L20 28z"/>
 <path style="fill:#a8d5a8; stroke:none;" d="M20 28L20 29L21 29L21 28z"/>
 <path style="fill:#f6fbf6; stroke:none;" d="M21 28L21 29L22 29L22 28z"/>
 <path style="fill:#ffffff; stroke:none;" d="M22 28L22 29L21 29L20 29L20 30L19 30L19 31L18 31L17 31L17 32L16 32L16 33L16 34L17 34L17 35L17 36L18 36L18 37L19 37L19 38L20 38L20 37L19 37L19 36L18 36L18 35L18 34L17 34L17 33L17 32L18 32L19 32L19 31L20 31L20 30L21 30L22 30L22 29L23 29L23 28z"/>
 <path style="fill:#fcfdfc; stroke:none;" d="M23 28L23 29L24 29L24 28z"/>
 <path style="fill:#ddeedd; stroke:none;" d="M24 28L24 29L25 29L25 28z"/>
 <path style="fill:#8bc68b; stroke:none;" d="M25 28L25 29L26 29L26 28z"/>
 <path style="fill:#209220; stroke:none;" d="M26 28L26 29L27 29L27 28z"/>
 <path style="fill:#018301; stroke:none;" d="M38 28L38 29L39 29L39 28z"/>
 <path style="fill:#afd7af; stroke:none;" d="M39 28L39 29L40 29L40 28z"/>
 <path style="fill:#ffffff; stroke:none;" d="M40 28L40 29L41 29L41 30L41 31L42 31L42 32L43 32L43 31L42 31L42 30L42 29L41 29L41 28z"/>
 <path style="fill:#f4f9f4; stroke:none;" d="M41 28L41 29L42 29L42 28z"/>
 <path style="fill:#66b366; stroke:none;" d="M42 28L42 29L43 29L43 28z"/>
 <path style="fill:#048404; stroke:none;" d="M43 28L43 29L44 29L44 28z"/>
 <path style="fill:#ceaa00; stroke:none;" d="M56 28L56 29L57 29L57 28z"/>
 <path style="fill:#ffb800; stroke:none;" d="M57 28L57 29L58 29L59 29L60 29L61 29L61 28L60 28L59 28L58 28z"/>
 <path style="fill:#ffba00; stroke:none;" d="M61 28L61 29L62 29L62 28z"/>
 <path style="fill:#ffcb00; stroke:none;" d="M62 28L62 29L63 29L63 28z"/>
 <path style="fill:#332a00; stroke:none;" d="M63 28L63 29L63 30L64 30L64 29L64 28z"/>
 <path style="fill:#ffc800; stroke:none;" d="M1 29L1 30L2 30L2 29z"/>
 <path style="fill:#ffb500; stroke:none;" d="M3 29L3 30L2 30L2 31L3 31L3 30L4 30L5 30L6 30L7 30L7 29L6 29L5 29L4 29z"/>
 <path style="fill:#cda700; stroke:none;" d="M7 29L7 30L8 30L8 29z"/>
 <path style="fill:#288800; stroke:none;" d="M8 29L8 30L8 31L8 32L9 32L9 31L9 30L9 29z"/>
 <path style="fill:#028302; stroke:none;" d="M16 29L16 30L17 30L17 29z"/>
 <path style="fill:#259425; stroke:none;" d="M17 29L17 30L18 30L18 29z"/>
 <path style="fill:#77bc77; stroke:none;" d="M18 29L18 30L19 30L19 29z"/>
 <path style="fill:#dbeddb; stroke:none;" d="M19 29L19 30L20 30L20 29z"/>
 <path style="fill:#ecf5ec; stroke:none;" d="M22 29L22 30L23 30L23 29z"/>
 <path style="fill:#aad5aa; stroke:none;" d="M23 29L23 30L24 30L24 29z"/>
 <path style="fill:#3da03d; stroke:none;" d="M24 29L24 30L25 30L25 29z"/>
 <path style="fill:#399e39; stroke:none;" d="M39 29L39 30L40 30L40 29z"/>
 <path style="fill:#f0f8f0; stroke:none;" d="M40 29L40 30L41 30L41 29z"/>
 <path style="fill:#c6e3c6; stroke:none;" d="M42 29L42 30L43 30L43 29z"/>
 <path style="fill:#1f911f; stroke:none;" d="M43 29L43 30L44 30L44 29z"/>
 <path style="fill:#2b8900; stroke:none;" d="M55 29L55 30L56 30L56 29z"/>
 <path style="fill:#cea700; stroke:none;" d="M56 29L56 30L57 30L57 29z"/>
 <path style="fill:#ffb500; stroke:none;" d="M57 29L57 30L58 30L59 30L60 30L61 30L61 29L60 29L59 29L58 29z"/>
 <path style="fill:#ffb700; stroke:none;" d="M61 29L61 30L62 30L62 29z"/>
 <path style="fill:#ffc800; stroke:none;" d="M62 29L62 30L63 30L63 29z"/>
 <path style="fill:#332900; stroke:none;" d="M0 30L0 31L1 31L1 30z"/>
 <path style="fill:#ffc500; stroke:none;" d="M1 30L1 31L2 31L2 30z"/>
 <path style="fill:#ffb200; stroke:none;" d="M3 30L3 31L4 31L5 31L6 31L7 31L7 30L6 30L5 30L4 30z"/>
 <path style="fill:#cda400; stroke:none;" d="M7 30L7 31L8 31L8 30z"/>
 <path style="fill:#65b365; stroke:none;" d="M16 30L16 31L17 31L17 30z"/>
 <path style="fill:#bedfbe; stroke:none;" d="M17 30L17 31L18 31L18 30z"/>
 <path style="fill:#f5faf5; stroke:none;" d="M18 30L18 31L19 31L19 30z"/>
 <path style="fill:#f9fcf9; stroke:none;" d="M20 30L20 31L21 31L21 30z"/>
 <path style="fill:#c0e0c0; stroke:none;" d="M21 30L21 31L22 31L22 30z"/>
 <path style="fill:#63b263; stroke:none;" d="M22 30L22 31L23 31L23 30z"/>
 <path style="fill:#188e18; stroke:none;" d="M23 30L23 31L24 31L24 30z"/>
 <path style="fill:#018301; stroke:none;" d="M39 30L39 31L40 31L40 30z"/>
 <path style="fill:#96cb96; stroke:none;" d="M40 30L40 31L41 31L41 30z"/>
 <path style="fill:#fbfdfb; stroke:none;" d="M42 30L42 31L43 31L43 30z"/>
 <path style="fill:#7abe7a; stroke:none;" d="M43 30L43 31L44 31L44 30z"/>
 <path style="fill:#2b8800; stroke:none;" d="M55 30L55 31L55 32L56 32L56 31L56 30z"/>
 <path style="fill:#cea500; stroke:none;" d="M56 30L56 31L57 31L57 30z"/>
 <path style="fill:#ffb200; stroke:none;" d="M57 30L57 31L58 31L59 31L60 31L61 31L61 30L60 30L59 30L58 30z"/>
 <path style="fill:#ffb300; stroke:none;" d="M61 30L61 31L62 31L62 30z"/>
 <path style="fill:#ffc300; stroke:none;" d="M62 30L62 31L63 31L63 30z"/>
 <path style="fill:#332900; stroke:none;" d="M63 30L63 31L64 31L64 30z"/>
 <path style="fill:#332800; stroke:none;" d="M0 31L0 32L0 33L1 33L1 32L1 31z"/>
 <path style="fill:#ffc100; stroke:none;" d="M1 31L1 32L2 32L2 31z"/>
 <path style="fill:#ffb100; stroke:none;" d="M2 31L2 32L3 32L3 31z"/>
 <path style="fill:#ffaf00; stroke:none;" d="M3 31L3 32L2 32L2 33L3 33L3 32L4 32L5 32L6 32L7 32L7 31L6 31L5 31L4 31z"/>
 <path style="fill:#cda100; stroke:none;" d="M7 31L7 32L8 32L8 31z"/>
 <path style="fill:#84c284; stroke:none;" d="M15 31L15 32L16 32L16 31z"/>
 <path style="fill:#edf6ed; stroke:none;" d="M16 31L16 32L17 32L17 31z"/>
 <path style="fill:#f4faf4; stroke:none;" d="M19 31L19 32L20 32L20 31z"/>
 <path style="fill:#6fb86f; stroke:none;" d="M20 31L20 32L21 32L21 31z"/>
 <path style="fill:#1f911f; stroke:none;" d="M21 31L21 32L22 32L22 31z"/>
 <path style="fill:#058405; stroke:none;" d="M22 31L22 32L23 32L23 31z"/>
 <path style="fill:#339a33; stroke:none;" d="M40 31L40 32L41 32L41 31z"/>
 <path style="fill:#daecda; stroke:none;" d="M41 31L41 32L42 32L42 31z"/>
 <path style="fill:#edf6ed; stroke:none;" d="M43 31L43 32L44 32L44 31z"/>
 <path style="fill:#148b14; stroke:none;" d="M44 31L44 32L45 32L45 31z"/>
 <path style="fill:#cea200; stroke:none;" d="M56 31L56 32L57 32L57 31z"/>
 <path style="fill:#ffaf00; stroke:none;" d="M57 31L57 32L58 32L59 32L60 32L61 32L62 32L62 31L61 31L60 31L59 31L58 31z"/>
 <path style="fill:#ffc000; stroke:none;" d="M62 31L62 32L63 32L63 31z"/>
 <path style="fill:#332800; stroke:none;" d="M63 31L63 32L63 33L64 33L64 32L64 31z"/>
 <path style="fill:#ffbe00; stroke:none;" d="M1 32L1 33L2 33L2 32z"/>
 <path style="fill:#ffad00; stroke:none;" d="M3 32L3 33L4 33L5 33L6 33L7 33L7 32L6 32L5 32L4 32z"/>
 <path style="fill:#cda000; stroke:none;" d="M7 32L7 33L8 33L8 32z"/>
 <path style="fill:#288700; stroke:none;" d="M8 32L8 33L8 34L9 34L9 33L9 32z"/>
 <path style="fill:#cbe5cb; stroke:none;" d="M15 32L15 33L16 33L16 32z"/>
 <path style="fill:#fdfefd; stroke:none;" d="M17 32L17 33L18 33L18 32z"/>
 <path style="fill:#a1d1a1; stroke:none;" d="M18 32L18 33L19 33L19 32z"/>
 <path style="fill:#168d16; stroke:none;" d="M19 32L19 33L20 33L20 32z"/>
 <path style="fill:#018201; stroke:none;" d="M20 32L20 33L21 33L21 32z"/>
 <path style="fill:#018301; stroke:none;" d="M41 32L41 33L42 33L42 32z"/>
 <path style="fill:#028302; stroke:none;" d="M42 32L42 33L43 33L44 33L44 32L43 32z"/>
 <path style="fill:#2b8700; stroke:none;" d="M55 32L55 33L55 34L56 34L56 33L56 32z"/>
 <path style="fill:#cea000; stroke:none;" d="M56 32L56 33L57 33L57 32z"/>
 <path style="fill:#ffad00; stroke:none;" d="M57 32L57 33L58 33L59 33L60 33L61 33L62 33L62 32L61 32L60 32L59 32L58 32z"/>
 <path style="fill:#ffbc00; stroke:none;" d="M62 32L62 33L63 33L63 32z"/>
 <path style="fill:#332700; stroke:none;" d="M0 33L0 34L1 34L1 33z"/>
 <path style="fill:#ffbb00; stroke:none;" d="M1 33L1 34L2 34L2 33z"/>
 <path style="fill:#ffac00; stroke:none;" d="M2 33L2 34L3 34L3 33z"/>
 <path style="fill:#ffaa00; stroke:none;" d="M3 33L3 34L4 34L5 34L6 34L7 34L7 33L6 33L5 33L4 33z"/>
 <path style="fill:#cd9e00; stroke:none;" d="M7 33L7 34L8 34L8 33z"/>
 <path style="fill:#98cc98; stroke:none;" d="M15 33L15 34L16 34L16 33z"/>
 <path style="fill:#f7fbf7; stroke:none;" d="M17 33L17 34L18 34L18 33z"/>
 <path style="fill:#78bc78; stroke:none;" d="M18 33L18 34L19 34L19 33z"/>
 <path style="fill:#098609; stroke:none;" d="M19 33L19 34L20 34L20 33z"/>
 <path style="fill:#299529; stroke:none;" d="M23 33L23 34L24 34L24 33z"/>
 <path style="fill:#64b364; stroke:none;" d="M24 33L24 34L25 34L26 34L27 34L28 34L29 34L30 34L31 34L32 34L33 34L34 34L35 34L36 34L37 34L38 34L39 34L40 34L41 34L42 34L43 34L44 34L45 34L46 34L47 34L47 33L46 33L45 33L44 33L43 33L42 33L41 33L40 33L39 33L38 33L37 33L36 33L35 33L34 33L33 33L32 33L31 33L30 33L29 33L28 33L27 33L26 33L25 33z"/>
 <path style="fill:#63b363; stroke:none;" d="M47 33L47 34L48 34L48 33z"/>
 <path style="fill:#279527; stroke:none;" d="M48 33L48 34L49 34L49 33z"/>
 <path style="fill:#ce9e00; stroke:none;" d="M56 33L56 34L57 34L57 33z"/>
 <path style="fill:#ffaa00; stroke:none;" d="M57 33L57 34L58 34L59 34L60 34L61 34L61 33L60 33L59 33L58 33z"/>
 <path style="fill:#ffab00; stroke:none;" d="M61 33L61 34L62 34L62 33z"/>
 <path style="fill:#ffba00; stroke:none;" d="M62 33L62 34L63 34L63 33z"/>
 <path style="fill:#332700; stroke:none;" d="M63 33L63 34L64 34L64 33z"/>
 <path style="fill:#332600; stroke:none;" d="M0 34L0 35L0 36L1 36L1 35L1 34z"/>
 <path style="fill:#ffb800; stroke:none;" d="M1 34L1 35L2 35L2 34z"/>
 <path style="fill:#fea900; stroke:none;" d="M2 34L2 35L3 35L3 34z"/>
 <path style="fill:#fea700; stroke:none;" d="M3 34L3 35L4 35L5 35L6 35L7 35L7 34L6 34L5 34L4 34z"/>
 <path style="fill:#cc9b00; stroke:none;" d="M7 34L7 35L8 35L8 34z"/>
 <path style="fill:#278600; stroke:none;" d="M8 34L8 35L8 36L9 36L9 35L9 34z"/>
 <path style="fill:#259425; stroke:none;" d="M15 34L15 35L16 35L16 34z"/>
 <path style="fill:#f0f8f0; stroke:none;" d="M16 34L16 35L17 35L17 34z"/>
 <path style="fill:#d6ead6; stroke:none;" d="M18 34L18 35L19 35L19 34z"/>
 <path style="fill:#259425; stroke:none;" d="M19 34L19 35L20 35L20 34z"/>
 <path style="fill:#a4d2a4; stroke:none;" d="M23 34L23 35L24 35L24 34z"/>
 <path style="fill:#ffffff; stroke:none;" d="M24 34L24 35L24 36L24 37L24 38L24 39L24 40L24 41L24 42L24 43L24 44L24 45L24 46L24 47L24 48L24 49L24 50L24 51L24 52L25 52L26 52L27 52L28 52L29 52L30 52L31 52L32 52L33 52L34 52L35 52L36 52L37 52L38 52L39 52L40 52L41 52L42 52L43 52L44 52L45 52L46 52L47 52L48 52L48 51L48 50L48 49L48 48L48 47L48 46L48 45L48 44L48 43L48 42L48 41L48 40L48 39L48 38L48 37L48 36L48 35L47 35L47 34L46 34L45 34L44 34L43 34L42 34L41 34L40 34L39 34L38 34L37 34L36 34L35 34L34 34L33 34L32 34L31 34L30 34L29 34L28 34L27 34L26 34L25 34z"/>
 <path style="fill:#fefffe; stroke:none;" d="M47 34L47 35L48 35L48 34z"/>
 <path style="fill:#a0d0a0; stroke:none;" d="M48 34L48 35L49 35L49 34z"/>
 <path style="fill:#2a8600; stroke:none;" d="M55 34L55 35L55 36L56 36L56 35L56 34z"/>
 <path style="fill:#cd9b00; stroke:none;" d="M56 34L56 35L57 35L57 34z"/>
 <path style="fill:#fea700; stroke:none;" d="M57 34L57 35L58 35L59 35L60 35L61 35L61 34L60 34L59 34L58 34z"/>
 <path style="fill:#fea900; stroke:none;" d="M61 34L61 35L62 35L62 34z"/>
 <path style="fill:#ffb900; stroke:none;" d="M62 34L62 35L63 35L63 34z"/>
 <path style="fill:#332600; stroke:none;" d="M63 34L63 35L63 36L64 36L64 35L64 34z"/>
 <path style="fill:#ffb600; stroke:none;" d="M1 35L1 36L2 36L2 35z"/>
 <path style="fill:#fda700; stroke:none;" d="M2 35L2 36L3 36L3 35z"/>
 <path style="fill:#fca500; stroke:none;" d="M3 35L3 36L4 36L5 36L6 36L7 36L7 35L6 35L5 35L4 35z"/>
 <path style="fill:#ca9a00; stroke:none;" d="M7 35L7 36L8 36L8 35z"/>
 <path style="fill:#80c080; stroke:none;" d="M16 35L16 36L17 36L17 35z"/>
 <path style="fill:#fdfefd; stroke:none;" d="M18 35L18 36L19 36L19 35z"/>
 <path style="fill:#8cc78c; stroke:none;" d="M19 35L19 36L20 36L20 35z"/>
 <path style="fill:#cde7cd; stroke:none;" d="M23 35L23 36L23 37L23 38L23 39L23 40L23 41L23 42L23 43L23 44L23 45L23 46L23 47L23 48L23 49L23 50L23 51L23 52L24 52L24 51L24 50L24 49L24 48L24 47L24 46L24 45L24 44L24 43L24 42L24 41L24 40L24 39L24 38L24 37L24 36L24 35z"/>
 <path style="fill:#c9e5c9; stroke:none;" d="M48 35L48 36L48 37L48 38L48 39L48 40L48 41L48 42L48 43L48 44L48 45L48 46L48 47L48 48L48 49L48 50L48 51L48 52L49 52L49 51L49 50L49 49L49 48L49 47L49 46L49 45L49 44L49 43L49 42L49 41L49 40L49 39L49 38L49 37L49 36L49 35z"/>
 <path style="fill:#cb9a00; stroke:none;" d="M56 35L56 36L57 36L57 35z"/>
 <path style="fill:#fca500; stroke:none;" d="M57 35L57 36L58 36L59 36L60 36L61 36L61 35L60 35L59 35L58 35z"/>
 <path style="fill:#fda700; stroke:none;" d="M61 35L61 36L62 36L62 35z"/>
 <path style="fill:#ffb600; stroke:none;" d="M62 35L62 36L63 36L63 35z"/>
 <path style="fill:#332500; stroke:none;" d="M0 36L0 37L1 37L1 36z"/>
 <path style="fill:#ffb300; stroke:none;" d="M1 36L1 37L2 37L2 36z"/>
 <path style="fill:#fba400; stroke:none;" d="M2 36L2 37L3 37L3 36z"/>
 <path style="fill:#f8a200; stroke:none;" d="M3 36L3 37L4 37L5 37L6 37L7 37L7 36L6 36L5 36L4 36z"/>
 <path style="fill:#c89700; stroke:none;" d="M7 36L7 37L8 37L8 36z"/>
 <path style="fill:#268500; stroke:none;" d="M8 36L8 37L8 38L9 38L9 37L9 36z"/>
 <path style="fill:#219221; stroke:none;" d="M16 36L16 37L17 37L17 36z"/>
 <path style="fill:#c7e3c7; stroke:none;" d="M17 36L17 37L18 37L18 36z"/>
 <path style="fill:#fdfffd; stroke:none;" d="M19 36L19 37L20 37L20 36z"/>
 <path style="fill:#319a31; stroke:none;" d="M20 36L20 37L21 37L21 36z"/>
 <path style="fill:#add6ad; stroke:none;" d="M25 36L25 37L26 37L26 36z"/>
 <path style="fill:#ffffff; stroke:none;" d="M26 36L27 36L28 36L29 36L30 36L31 36L32 36L33 36L34 36L35 36L36 36L37 36L38 36L39 36L40 36L41 36L42 36L43 36L44 36L45 36L46 36L47 36L47 37L47 38L47 39L47 40L47 41L47 42L47 43L47 44L47 45L47 46L47 47L47 48L47 49L47 50L47 51L46 51L45 51L44 51L43 51L42 51L41 51L40 51L39 51L38 51L37 51L36 51L35 51L34 51L33 51L32 51L31 51L30 51L29 51L28 51L27 51L26 51L25 51L25 50L25 49L25 48L25 47L25 46L25 45L25 44L25 43L25 42L25 41L25 40L25 39L25 38L25 37L25 36z"/>
 <path style="fill:#349b34; stroke:none;" d="M26 36L26 37L27 37L28 37L29 37L30 37L31 37L32 37L33 37L34 37L35 37L36 37L37 37L38 37L39 37L40 37L41 37L42 37L43 37L44 37L45 37L46 37L46 36L45 36L44 36L43 36L42 36L41 36L40 36L39 36L38 36L37 36L36 36L35 36L34 36L33 36L32 36L31 36L30 36L29 36L28 36L27 36z"/>
 <path style="fill:#b0d8b0; stroke:none;" d="M46 36L46 37L47 37L47 36z"/>
 <path style="fill:#298500; stroke:none;" d="M55 36L55 37L55 38L56 38L56 37L56 36z"/>
 <path style="fill:#c99700; stroke:none;" d="M56 36L56 37L57 37L57 36z"/>
 <path style="fill:#f8a200; stroke:none;" d="M57 36L57 37L58 37L59 37L60 37L61 37L61 36L60 36L59 36L58 36z"/>
 <path style="fill:#fba400; stroke:none;" d="M61 36L61 37L62 37L62 36z"/>
 <path style="fill:#ffb300; stroke:none;" d="M62 36L62 37L63 37L63 36z"/>
 <path style="fill:#332500; stroke:none;" d="M63 36L63 37L64 37L64 36z"/>
 <path style="fill:#2f2100; stroke:none;" d="M0 37L0 38L1 38L1 37z"/>
 <path style="fill:#f4a700; stroke:none;" d="M1 37L1 38L2 38L2 37z"/>
 <path style="fill:#f9a200; stroke:none;" d="M2 37L2 38L3 38L3 37z"/>
 <path style="fill:#f59f00; stroke:none;" d="M3 37L3 38L4 38L5 38L6 38L7 38L7 37L6 37L5 37L4 37z"/>
 <path style="fill:#c59500; stroke:none;" d="M7 37L7 38L8 38L8 37z"/>
 <path style="fill:#048404; stroke:none;" d="M16 37L16 38L17 38L17 37z"/>
 <path style="fill:#5eb05e; stroke:none;" d="M17 37L17 38L18 38L18 37z"/>
 <path style="fill:#ebf5eb; stroke:none;" d="M18 37L18 38L19 38L19 37z"/>
 <path style="fill:#b2d9b2; stroke:none;" d="M20 37L20 38L21 38L21 37z"/>
 <path style="fill:#128b12; stroke:none;" d="M21 37L21 38L22 38L22 37z"/>
 <path style="fill:#97cc97; stroke:none;" d="M25 37L25 38L25 39L25 40L25 41L25 42L25 43L25 44L25 45L25 46L25 47L25 48L25 49L25 50L26 50L26 49L26 48L26 47L26 46L26 45L26 44L26 43L26 42L26 41L26 40L26 39L26 38L26 37z"/>
 <path style="fill:#008200; stroke:none;" d="M26 37L26 38L26 39L26 40L26 41L26 42L26 43L26 44L26 45L26 46L26 47L26 48L26 49L26 50L27 50L28 50L29 50L30 50L31 50L32 50L33 50L34 50L35 50L36 50L37 50L38 50L39 50L40 50L41 50L42 50L43 50L44 50L45 50L46 50L46 49L46 48L46 47L46 46L46 45L46 44L46 43L46 42L46 41L46 40L46 39L46 38L46 37L45 37L44 37L43 37L42 37L41 37L40 37L39 37L38 37L37 37L36 37L35 37L34 37L33 37L32 37L31 37L30 37L29 37L28 37L27 37z"/>
 <path style="fill:#9cce9c; stroke:none;" d="M46 37L46 38L46 39L46 40L46 41L46 42L46 43L46 44L46 45L46 46L46 47L46 48L46 49L46 50L47 50L47 49L47 48L47 47L47 46L47 45L47 44L47 43L47 42L47 41L47 40L47 39L47 38L47 37z"/>
 <path style="fill:#c69500; stroke:none;" d="M56 37L56 38L57 38L57 37z"/>
 <path style="fill:#f59f00; stroke:none;" d="M57 37L57 38L58 38L59 38L60 38L61 38L61 37L60 37L59 37L58 37z"/>
 <path style="fill:#f9a200; stroke:none;" d="M61 37L61 38L62 38L62 37z"/>
 <path style="fill:#f7ac00; stroke:none;" d="M62 37L62 38L63 38L63 37z"/>
 <path style="fill:#302300; stroke:none;" d="M63 37L63 38L64 38L64 37z"/>
 <path style="fill:#271b00; stroke:none;" d="M0 38L0 39L1 39L1 38z"/>
 <path style="fill:#dc9500; stroke:none;" d="M1 38L1 39L2 39L2 38z"/>
 <path style="fill:#f7a100; stroke:none;" d="M2 38L2 39L3 39L3 38z"/>
 <path style="fill:#f29d00; stroke:none;" d="M3 38L3 39L4 39L5 39L6 39L7 39L7 38L6 38L5 38L4 38z"/>
 <path style="fill:#c29300; stroke:none;" d="M7 38L7 39L8 39L8 38z"/>
 <path style="fill:#258400; stroke:none;" d="M8 38L8 39L8 40L8 41L9 41L9 40L9 39L9 38z"/>
 <path style="fill:#158c15; stroke:none;" d="M17 38L17 39L18 39L18 38z"/>
 <path style="fill:#a9d4a9; stroke:none;" d="M18 38L18 39L19 39L19 38z"/>
 <path style="fill:#fdfefd; stroke:none;" d="M19 38L19 39L20 39L20 38z"/>
 <path style="fill:#edf6ed; stroke:none;" d="M20 38L20 39L21 39L21 38z"/>
 <path style="fill:#62b262; stroke:none;" d="M21 38L21 39L22 39L22 38z"/>
 <path style="fill:#288500; stroke:none;" d="M55 38L55 39L56 39L56 38z"/>
 <path style="fill:#c39300; stroke:none;" d="M56 38L56 39L57 39L57 38z"/>
 <path style="fill:#f29d00; stroke:none;" d="M57 38L57 39L58 39L59 39L60 39L61 39L61 38L60 38L59 38L58 38z"/>
 <path style="fill:#f7a200; stroke:none;" d="M61 38L61 39L62 39L62 38z"/>
 <path style="fill:#e09a00; stroke:none;" d="M62 38L62 39L63 39L63 38z"/>
 <path style="fill:#291d00; stroke:none;" d="M63 38L63 39L64 39L64 38z"/>
 <path style="fill:#261a00; stroke:none;" d="M0 39L0 40L1 40L1 39z"/>
 <path style="fill:#d99100; stroke:none;" d="M1 39L1 40L2 40L2 39z"/>
 <path style="fill:#f59e00; stroke:none;" d="M2 39L2 40L3 40L3 39z"/>
 <path style="fill:#ef9a00; stroke:none;" d="M3 39L3 40L4 40L5 40L6 40L7 40L7 39L6 39L5 39L4 39z"/>
 <path style="fill:#bf9000; stroke:none;" d="M7 39L7 40L8 40L8 39z"/>
 <path style="fill:#4ca74c; stroke:none;" d="M18 39L18 40L19 40L19 39z"/>
 <path style="fill:#e6f3e6; stroke:none;" d="M19 39L19 40L20 40L20 39z"/>
 <path style="fill:#fefefe; stroke:none;" d="M20 39L20 40L21 40L21 39z"/>
 <path style="fill:#93cb93; stroke:none;" d="M21 39L21 40L22 40L22 39z"/>
 <path style="fill:#2e992e; stroke:none;" d="M38 39L38 40L39 40L39 39z"/>
 <path style="fill:#008200; stroke:none;" d="M39 39L40 39L41 39L41 40L42 40L43 40L43 41L44 41L44 42L44 43L45 43L45 44L45 45L45 46L45 47L45 48L45 49L44 49L43 49L42 49L41 49L40 49L39 49L38 49L37 49L36 49L35 49L34 49L33 49L32 49L31 49L30 49L29 49L28 49L27 49L27 48L27 47L27 46L27 45L27 44L27 43L28 43L28 42L29 42L29 41L30 41L30 40L31 40L32 40L32 41L33 41L33 42L34 42L34 43L35 43L35 42L36 42L36 41L36 40L37 40L38 40L38 39z"/>
 <path style="fill:#b1d9b1; stroke:none;" d="M39 39L39 40L40 40L40 39z"/>
 <path style="fill:#64b264; stroke:none;" d="M40 39L40 40L41 40L41 39z"/>
 <path style="fill:#278500; stroke:none;" d="M55 39L55 40L56 40L56 39z"/>
 <path style="fill:#c19100; stroke:none;" d="M56 39L56 40L57 40L57 39z"/>
 <path style="fill:#ef9a00; stroke:none;" d="M57 39L57 40L58 40L59 40L60 40L61 40L61 39L60 39L59 39L58 39z"/>
 <path style="fill:#f69f00; stroke:none;" d="M61 39L61 40L62 40L62 39z"/>
 <path style="fill:#d89100; stroke:none;" d="M62 39L62 40L63 40L63 39z"/>
 <path style="fill:#261a00; stroke:none;" d="M63 39L63 40L64 40L64 39z"/>
 <path style="fill:#1b1200; stroke:none;" d="M0 40L0 41L1 41L1 40z"/>
 <path style="fill:#b67800; stroke:none;" d="M1 40L1 41L2 41L2 40z"/>
 <path style="fill:#f39d00; stroke:none;" d="M2 40L2 41L3 41L3 40z"/>
 <path style="fill:#eb9700; stroke:none;" d="M3 40L3 41L4 41L5 41L6 41L7 41L7 40L6 40L5 40L4 40z"/>
 <path style="fill:#bc8e00; stroke:none;" d="M7 40L7 41L8 41L8 40z"/>
 <path style="fill:#018201; stroke:none;" d="M18 40L18 41L19 41L19 40z"/>
 <path style="fill:#91c891; stroke:none;" d="M19 40L19 41L20 41L20 40z"/>
 <path style="fill:#ffffff; stroke:none;" d="M20 40L20 41L21 41L21 40z"/>
 <path style="fill:#98cc98; stroke:none;" d="M21 40L21 41L21 42L22 42L22 41L22 40z"/>
 <path style="fill:#078607; stroke:none;" d="M30 40L30 41L31 41L31 40z"/>
 <path style="fill:#058405; stroke:none;" d="M31 40L31 41L32 41L32 42L33 42L33 43L34 43L34 42L33 42L33 41L32 41L32 40z"/>
 <path style="fill:#048404; stroke:none;" d="M36 40L36 41L37 41L37 40z"/>
 <path style="fill:#3ea03e; stroke:none;" d="M37 40L37 41L36 41L36 42L37 42L37 41L38 41L38 40z"/>
 <path style="fill:#cce6cc; stroke:none;" d="M38 40L38 41L39 41L39 40z"/>
 <path style="fill:#ffffff; stroke:none;" d="M39 40L39 41L38 41L38 42L37 42L37 43L36 43L36 44L35 44L35 45L34 45L33 45L33 44L32 44L32 43L31 43L30 43L30 44L29 44L28 44L28 45L28 46L28 47L28 48L29 48L30 48L31 48L32 48L33 48L34 48L35 48L36 48L37 48L38 48L39 48L40 48L41 48L42 48L43 48L44 48L44 47L44 46L44 45L44 44L43 44L43 43L42 43L42 42L41 42L41 41L40 41L40 40z"/>
 <path style="fill:#eef7ee; stroke:none;" d="M40 40L40 41L41 41L41 40z"/>
 <path style="fill:#75bb75; stroke:none;" d="M41 40L41 41L42 41L42 40z"/>
 <path style="fill:#0c880c; stroke:none;" d="M42 40L42 41L43 41L43 42L44 42L44 41L43 41L43 40z"/>
 <path style="fill:#278400; stroke:none;" d="M55 40L55 41L56 41L56 40z"/>
 <path style="fill:#bd8e00; stroke:none;" d="M56 40L56 41L57 41L57 40z"/>
 <path style="fill:#eb9700; stroke:none;" d="M57 40L57 41L58 41L59 41L60 41L61 41L61 40L60 40L59 40L58 40z"/>
 <path style="fill:#f39d00; stroke:none;" d="M61 40L61 41L62 41L62 40z"/>
 <path style="fill:#b87b00; stroke:none;" d="M62 40L62 41L63 41L63 40z"/>
 <path style="fill:#1c1300; stroke:none;" d="M63 40L63 41L64 41L64 40z"/>
 <path style="fill:#150e00; stroke:none;" d="M0 41L0 42L1 42L1 41z"/>
 <path style="fill:#a56c00; stroke:none;" d="M1 41L1 42L2 42L2 41z"/>
 <path style="fill:#f19c00; stroke:none;" d="M2 41L2 42L2 43L3 43L3 42L3 41z"/>
 <path style="fill:#e89500; stroke:none;" d="M3 41L3 42L4 42L5 42L6 42L7 42L7 41L6 41L5 41L4 41z"/>
 <path style="fill:#ba8d00; stroke:none;" d="M7 41L7 42L8 42L8 41z"/>
 <path style="fill:#248400; stroke:none;" d="M8 41L8 42L9 42L9 41z"/>
 <path style="fill:#1f911f; stroke:none;" d="M19 41L19 42L20 42L20 41z"/>
 <path style="fill:#e6f2e6; stroke:none;" d="M20 41L20 42L21 42L21 41z"/>
 <path style="fill:#1a8e1a; stroke:none;" d="M29 41L29 42L30 42L30 41z"/>
 <path style="fill:#6db66d; stroke:none;" d="M30 41L30 42L31 42L31 41z"/>
 <path style="fill:#64b264; stroke:none;" d="M31 41L31 42L32 42L32 41z"/>
 <path style="fill:#c6e3c6; stroke:none;" d="M37 41L37 42L38 42L38 41z"/>
 <path style="fill:#e7f3e7; stroke:none;" d="M41 41L41 42L42 42L42 43L43 43L43 42L42 42L42 41z"/>
 <path style="fill:#73ba73; stroke:none;" d="M42 41L42 42L43 42L43 41z"/>
 <path style="fill:#268400; stroke:none;" d="M55 41L55 42L56 42L56 41z"/>
 <path style="fill:#bb8d00; stroke:none;" d="M56 41L56 42L57 42L57 41z"/>
 <path style="fill:#e89500; stroke:none;" d="M57 41L57 42L58 42L59 42L60 42L61 42L61 41L60 41L59 41L58 41z"/>
 <path style="fill:#f29c00; stroke:none;" d="M61 41L61 42L62 42L62 41z"/>
 <path style="fill:#a56d00; stroke:none;" d="M62 41L62 42L63 42L63 41z"/>
 <path style="fill:#160f00; stroke:none;" d="M63 41L63 42L64 42L64 41z"/>
 <path style="fill:#0b0700; stroke:none;" d="M0 42L0 43L1 43L1 42z"/>
 <path style="fill:#885800; stroke:none;" d="M1 42L1 43L2 43L2 42z"/>
 <path style="fill:#e69300; stroke:none;" d="M3 42L3 43L4 43L4 42z"/>
 <path style="fill:#e59300; stroke:none;" d="M4 42L4 43L5 43L6 43L7 43L7 42L6 42L5 42z"/>
 <path style="fill:#b88b00; stroke:none;" d="M7 42L7 43L8 43L8 42z"/>
 <path style="fill:#238300; stroke:none;" d="M8 42L8 43L8 44L9 44L9 43L9 42z"/>
 <path style="fill:#79bd79; stroke:none;" d="M20 42L20 43L21 43L21 42z"/>
 <path style="fill:#92c992; stroke:none;" d="M21 42L21 43L22 43L22 42z"/>
 <path style="fill:#148c14; stroke:none;" d="M28 42L28 43L29 43L29 42z"/>
 <path style="fill:#90c890; stroke:none;" d="M29 42L29 43L30 43L30 42z"/>
 <path style="fill:#f0f8f0; stroke:none;" d="M30 42L30 43L31 43L31 42z"/>
 <path style="fill:#eff7ef; stroke:none;" d="M31 42L31 43L32 43L32 42z"/>
 <path style="fill:#68b568; stroke:none;" d="M32 42L32 43L33 43L33 44L34 44L34 43L33 43L33 42z"/>
 <path style="fill:#2e982e; stroke:none;" d="M35 42L35 43L36 43L36 42z"/>
 <path style="fill:#cce6cc; stroke:none;" d="M36 42L36 43L37 43L37 42z"/>
 <path style="fill:#5eb05e; stroke:none;" d="M43 42L43 43L44 43L44 42z"/>
 <path style="fill:#268300; stroke:none;" d="M55 42L55 43L55 44L56 44L56 43L56 42z"/>
 <path style="fill:#b98b00; stroke:none;" d="M56 42L56 43L57 43L57 42z"/>
 <path style="fill:#e59300; stroke:none;" d="M57 42L57 43L58 43L59 43L60 43L61 43L61 42L60 42L59 42L58 42z"/>
 <path style="fill:#f09b00; stroke:none;" d="M61 42L61 43L62 43L62 42z"/>
 <path style="fill:#875a00; stroke:none;" d="M62 42L62 43L63 43L63 42z"/>
 <path style="fill:#0c0800; stroke:none;" d="M63 42L63 43L64 43L64 42z"/>
 <path style="fill:#020100; stroke:none;" d="M0 43L0 44L1 44L1 43z"/>
 <path style="fill:#6c4500; stroke:none;" d="M1 43L1 44L2 44L2 43z"/>
 <path style="fill:#f39a00; stroke:none;" d="M2 43L2 44L3 44L3 43z"/>
 <path style="fill:#e49100; stroke:none;" d="M3 43L3 44L4 44L4 43z"/>
 <path style="fill:#e29000; stroke:none;" d="M4 43L4 44L5 44L6 44L7 44L7 43L6 43L5 43z"/>
 <path style="fill:#b68900; stroke:none;" d="M7 43L7 44L8 44L8 43z"/>
 <path style="fill:#249324; stroke:none;" d="M20 43L20 44L21 44L21 43z"/>
 <path style="fill:#59ad59; stroke:none;" d="M21 43L21 44L22 44L22 43z"/>
 <path style="fill:#018201; stroke:none;" d="M27 43L27 44L28 44L28 43z"/>
 <path style="fill:#95ca95; stroke:none;" d="M28 43L28 44L29 44L29 43z"/>
 <path style="fill:#f3f9f3; stroke:none;" d="M29 43L29 44L30 44L30 43z"/>
 <path style="fill:#e5f2e5; stroke:none;" d="M32 43L32 44L33 44L33 43z"/>
 <path style="fill:#339b33; stroke:none;" d="M34 43L34 44L35 44L35 43z"/>
 <path style="fill:#c2e1c2; stroke:none;" d="M35 43L35 44L36 44L36 43z"/>
 <path style="fill:#e5f2e5; stroke:none;" d="M43 43L43 44L44 44L44 43z"/>
 <path style="fill:#3c9f3c; stroke:none;" d="M44 43L44 44L45 44L45 43z"/>
 <path style="fill:#b78900; stroke:none;" d="M56 43L56 44L57 44L57 43z"/>
 <path style="fill:#e29000; stroke:none;" d="M57 43L57 44L58 44L59 44L60 44L60 43L59 43L58 43z"/>
 <path style="fill:#e49100; stroke:none;" d="M60 43L60 44L61 44L61 43z"/>
 <path style="fill:#f39b00; stroke:none;" d="M61 43L61 44L62 44L62 43z"/>
 <path style="fill:#684300; stroke:none;" d="M62 43L62 44L63 44L63 43z"/>
 <path style="fill:#020100; stroke:none;" d="M63 43L63 44L64 44L64 43z"/>
 <path style="fill:#492d00; stroke:none;" d="M1 44L1 45L2 45L2 44z"/>
 <path style="fill:#db8800; stroke:none;" d="M2 44L2 45L3 45L3 44z"/>
 <path style="fill:#e39000; stroke:none;" d="M3 44L3 45L4 45L4 44z"/>
 <path style="fill:#df8e00; stroke:none;" d="M4 44L4 45L5 45L6 45L7 45L7 44L6 44L5 44z"/>
 <path style="fill:#b38700; stroke:none;" d="M7 44L7 45L8 45L8 44z"/>
 <path style="fill:#228200; stroke:none;" d="M8 44L8 45L8 46L9 46L9 45L9 44z"/>
 <path style="fill:#018201; stroke:none;" d="M21 44L21 45L22 45L22 44z"/>
 <path style="fill:#8fc88f; stroke:none;" d="M27 44L27 45L28 45L28 44z"/>
 <path style="fill:#f4faf4; stroke:none;" d="M33 44L33 45L34 45L35 45L35 44L34 44z"/>
 <path style="fill:#c8e5c8; stroke:none;" d="M44 44L44 45L45 45L45 44z"/>
 <path style="fill:#258200; stroke:none;" d="M55 44L55 45L55 46L56 46L56 45L56 44z"/>
 <path style="fill:#b48700; stroke:none;" d="M56 44L56 45L57 45L57 44z"/>
 <path style="fill:#df8e00; stroke:none;" d="M57 44L57 45L58 45L59 45L60 45L60 44L59 44L58 44z"/>
 <path style="fill:#e39000; stroke:none;" d="M60 44L60 45L61 45L61 44z"/>
 <path style="fill:#da8700; stroke:none;" d="M61 44L61 45L62 45L62 44z"/>
 <path style="fill:#462b00; stroke:none;" d="M62 44L62 45L63 45L63 44z"/>
 <path style="fill:#2f1d00; stroke:none;" d="M1 45L1 46L2 46L2 45z"/>
 <path style="fill:#c67a00; stroke:none;" d="M2 45L2 46L3 46L3 45z"/>
 <path style="fill:#e28e00; stroke:none;" d="M3 45L3 46L4 46L4 45z"/>
 <path style="fill:#dc8b00; stroke:none;" d="M4 45L4 46L5 46L6 46L7 46L7 45L6 45L5 45z"/>
 <path style="fill:#b08500; stroke:none;" d="M7 45L7 46L8 46L8 45z"/>
 <path style="fill:#cee7ce; stroke:none;" d="M27 45L27 46L27 47L27 48L28 48L28 47L28 46L28 45z"/>
 <path style="fill:#c9e5c9; stroke:none;" d="M44 45L44 46L44 47L44 48L45 48L45 47L45 46L45 45z"/>
 <path style="fill:#b28500; stroke:none;" d="M56 45L56 46L57 46L57 45z"/>
 <path style="fill:#dc8b00; stroke:none;" d="M57 45L57 46L58 46L59 46L60 46L60 45L59 45L58 45z"/>
 <path style="fill:#e28e00; stroke:none;" d="M60 45L60 46L61 46L61 45z"/>
 <path style="fill:#c37800; stroke:none;" d="M61 45L61 46L62 46L62 45z"/>
 <path style="fill:#2d1c00; stroke:none;" d="M62 45L62 46L63 46L63 45z"/>
 <path style="fill:#0d0800; stroke:none;" d="M1 46L1 47L2 47L2 46z"/>
 <path style="fill:#a46300; stroke:none;" d="M2 46L2 47L3 47L3 46z"/>
 <path style="fill:#e48e00; stroke:none;" d="M3 46L3 47L4 47L4 46z"/>
 <path style="fill:#d98900; stroke:none;" d="M4 46L4 47L5 47L6 47L7 47L7 46L6 46L5 46z"/>
 <path style="fill:#ad8300; stroke:none;" d="M7 46L7 47L8 47L8 46z"/>
 <path style="fill:#228100; stroke:none;" d="M8 46L8 47L8 48L8 49L8 50L8 51L8 52L9 52L9 51L9 50L9 49L9 48L9 47L9 46z"/>
 <path style="fill:#248100; stroke:none;" d="M55 46L55 47L55 48L55 49L55 50L55 51L55 52L56 52L56 51L56 50L56 49L56 48L56 47L56 46z"/>
 <path style="fill:#af8300; stroke:none;" d="M56 46L56 47L57 47L57 46z"/>
 <path style="fill:#d98900; stroke:none;" d="M57 46L57 47L58 47L59 47L60 47L60 46L59 46L58 46z"/>
 <path style="fill:#e48e00; stroke:none;" d="M60 46L60 47L61 47L61 46z"/>
 <path style="fill:#a06100; stroke:none;" d="M61 46L61 47L62 47L62 46z"/>
 <path style="fill:#0c0700; stroke:none;" d="M62 46L62 47L63 47L63 46z"/>
 <path style="fill:#774800; stroke:none;" d="M2 47L2 48L3 48L3 47z"/>
 <path style="fill:#e18a00; stroke:none;" d="M3 47L3 48L4 48L4 47z"/>
 <path style="fill:#d88800; stroke:none;" d="M4 47L4 48L5 48L5 49L5 50L6 50L6 51L6 52L7 52L7 51L7 50L7 49L7 48L7 47L6 47L5 47z"/>
 <path style="fill:#ad8200; stroke:none;" d="M7 47L7 48L7 49L7 50L7 51L7 52L8 52L8 51L8 50L8 49L8 48L8 47z"/>
 <path style="fill:#ae8200; stroke:none;" d="M56 47L56 48L56 49L56 50L56 51L56 52L56 53L57 53L57 52L57 51L57 50L57 49L57 48L57 47z"/>
 <path style="fill:#d88800; stroke:none;" d="M57 47L57 48L57 49L57 50L57 51L57 52L58 52L58 51L58 50L59 50L59 49L59 48L60 48L60 47L59 47L58 47z"/>
 <path style="fill:#e58c00; stroke:none;" d="M60 47L60 48L61 48L61 47z"/>
 <path style="fill:#7e4d00; stroke:none;" d="M61 47L61 48L62 48L62 47z"/>
 <path style="fill:#341f00; stroke:none;" d="M2 48L2 49L3 49L3 48z"/>
 <path style="fill:#d58200; stroke:none;" d="M3 48L3 49L4 49L4 48z"/>
 <path style="fill:#da8900; stroke:none;" d="M4 48L4 49L5 49L5 48z"/>
 <path style="fill:#a5d3a5; stroke:none;" d="M27 48L27 49L28 49L28 48z"/>
 <path style="fill:#cde6cd; stroke:none;" d="M28 48L28 49L29 49L30 49L31 49L32 49L33 49L34 49L35 49L36 49L37 49L38 49L39 49L40 49L41 49L42 49L43 49L44 49L44 48L43 48L42 48L41 48L40 48L39 48L38 48L37 48L36 48L35 48L34 48L33 48L32 48L31 48L30 48L29 48z"/>
 <path style="fill:#a2d1a2; stroke:none;" d="M44 48L44 49L45 49L45 48z"/>
 <path style="fill:#da8900; stroke:none;" d="M59 48L59 49L60 49L60 48z"/>
 <path style="fill:#d48100; stroke:none;" d="M60 48L60 49L61 49L61 48z"/>
 <path style="fill:#362100; stroke:none;" d="M61 48L61 49L62 49L62 48z"/>
 <path style="fill:#a76600; stroke:none;" d="M3 49L3 50L4 50L4 49z"/>
 <path style="fill:#e28d00; stroke:none;" d="M4 49L4 50L5 50L5 49z"/>
 <path style="fill:#e28d00; stroke:none;" d="M59 49L59 50L60 50L60 49z"/>
 <path style="fill:#ae6b00; stroke:none;" d="M60 49L60 50L61 50L61 49z"/>
 <path style="fill:#0b0800; stroke:none;" d="M61 49L61 50L62 50L62 49z"/>
 <path style="fill:#4e2f00; stroke:none;" d="M3 50L3 51L4 51L4 50z"/>
 <path style="fill:#ec9100; stroke:none;" d="M4 50L4 51L5 51L5 50z"/>
 <path style="fill:#da8900; stroke:none;" d="M5 50L5 51L6 51L6 50z"/>
 <path style="fill:#d5ebd5; stroke:none;" d="M25 50L25 51L26 51L26 50z"/>
 <path style="fill:#98cd98; stroke:none;" d="M26 50L26 51L27 51L28 51L29 51L30 51L31 51L32 51L33 51L34 51L35 51L36 51L37 51L38 51L39 51L40 51L41 51L42 51L43 51L44 51L45 51L46 51L46 50L45 50L44 50L43 50L42 50L41 50L40 50L39 50L38 50L37 50L36 50L35 50L34 50L33 50L32 50L31 50L30 50L29 50L28 50L27 50z"/>
 <path style="fill:#d7ecd7; stroke:none;" d="M46 50L46 51L47 51L47 50z"/>
 <path style="fill:#d98900; stroke:none;" d="M58 50L58 51L59 51L59 50z"/>
 <path style="fill:#e99000; stroke:none;" d="M59 50L59 51L60 51L60 50z"/>
 <path style="fill:#523300; stroke:none;" d="M60 50L60 51L61 51L61 50z"/>
 <path style="fill:#0a0700; stroke:none;" d="M3 51L3 52L4 52L4 51z"/>
 <path style="fill:#c87a00; stroke:none;" d="M4 51L4 52L5 52L5 51z"/>
 <path style="fill:#e18c00; stroke:none;" d="M5 51L5 52L6 52L6 51z"/>
 <path style="fill:#e08c00; stroke:none;" d="M58 51L58 52L59 52L59 51z"/>
 <path style="fill:#c47800; stroke:none;" d="M59 51L59 52L60 52L60 51z"/>
 <path style="fill:#090600; stroke:none;" d="M60 51L60 52L61 52L61 51z"/>
 <path style="fill:#492c00; stroke:none;" d="M4 52L4 53L5 53L5 52z"/>
 <path style="fill:#dc8800; stroke:none;" d="M5 52L5 53L6 53L6 52z"/>
 <path style="fill:#db8a00; stroke:none;" d="M6 52L6 53L7 53L7 52z"/>
 <path style="fill:#ac8200; stroke:none;" d="M7 52L7 53L8 53L8 52z"/>
 <path style="fill:#1d8100; stroke:none;" d="M8 52L8 53L9 53L9 52z"/>
 <path style="fill:#53ab53; stroke:none;" d="M23 52L23 53L24 53L24 52z"/>
 <path style="fill:#cde6cd; stroke:none;" d="M24 52L24 53L25 53L26 53L27 53L28 53L29 53L30 53L31 53L32 53L33 53L34 53L35 53L36 53L37 53L38 53L39 53L40 53L41 53L42 53L43 53L44 53L45 53L46 53L47 53L47 52L46 52L45 52L44 52L43 52L42 52L41 52L40 52L39 52L38 52L37 52L36 52L35 52L34 52L33 52L32 52L31 52L30 52L29 52L28 52L27 52L26 52L25 52z"/>
 <path style="fill:#cce5cc; stroke:none;" d="M47 52L47 53L48 53L48 52z"/>
 <path style="fill:#50a950; stroke:none;" d="M48 52L48 53L49 53L49 52z"/>
 <path style="fill:#1f8100; stroke:none;" d="M55 52L55 53L56 53L56 52z"/>
 <path style="fill:#db8a00; stroke:none;" d="M57 52L57 53L58 53L58 52z"/>
 <path style="fill:#dc8800; stroke:none;" d="M58 52L58 53L59 53L59 52z"/>
 <path style="fill:#513200; stroke:none;" d="M59 52L59 53L60 53L60 52z"/>
 <path style="fill:#100a00; stroke:none;" d="M4 53L4 54L5 54L5 53z"/>
 <path style="fill:#895500; stroke:none;" d="M5 53L5 54L6 54L6 53z"/>
 <path style="fill:#de8a00; stroke:none;" d="M6 53L6 54L7 54L7 53z"/>
 <path style="fill:#af8300; stroke:none;" d="M7 53L7 54L8 54L8 53z"/>
 <path style="fill:#298100; stroke:none;" d="M8 53L8 54L9 54L9 53z"/>
 <path style="fill:#0d8200; stroke:none;" d="M9 53L9 54L10 54L10 53z"/>
 <path style="fill:#108200; stroke:none;" d="M10 53L10 54L11 54L11 53z"/>
 <path style="fill:#118200; stroke:none;" d="M11 53L11 54L12 54L13 54L14 54L15 54L16 54L17 54L18 54L19 54L20 54L21 54L22 54L23 54L24 54L25 54L26 54L27 54L28 54L29 54L30 54L31 54L32 54L33 54L34 54L35 54L36 54L37 54L38 54L39 54L40 54L41 54L42 54L43 54L44 54L45 54L46 54L47 54L48 54L49 54L50 54L51 54L52 54L53 54L53 53L52 53L51 53L50 53L49 53L48 53L47 53L46 53L45 53L44 53L43 53L42 53L41 53L40 53L39 53L38 53L37 53L36 53L35 53L34 53L33 53L32 53L31 53L30 53L29 53L28 53L27 53L26 53L25 53L24 53L23 53L22 53L21 53L20 53L19 53L18 53L17 53L16 53L15 53L14 53L13 53L12 53z"/>
 <path style="fill:#108200; stroke:none;" d="M53 53L53 54L54 54L54 53z"/>
 <path style="fill:#0d8200; stroke:none;" d="M54 53L54 54L55 54L55 53z"/>
 <path style="fill:#2b8100; stroke:none;" d="M55 53L55 54L56 54L56 53z"/>
 <path style="fill:#b08300; stroke:none;" d="M56 53L56 54L57 54L57 53z"/>
 <path style="fill:#dd8a00; stroke:none;" d="M57 53L57 54L58 54L58 53z"/>
 <path style="fill:#875300; stroke:none;" d="M58 53L58 54L59 54L59 53z"/>
 <path style="fill:#0f0900; stroke:none;" d="M59 53L59 54L60 54L60 53z"/>
 <path style="fill:#2c1b00; stroke:none;" d="M5 54L5 55L6 55L6 54z"/>
 <path style="fill:#b67100; stroke:none;" d="M6 54L6 55L7 55L7 54z"/>
 <path style="fill:#d08900; stroke:none;" d="M7 54L7 55L8 55L8 54z"/>
 <path style="fill:#7f8100; stroke:none;" d="M8 54L8 55L9 55L9 54z"/>
 <path style="fill:#6e8100; stroke:none;" d="M9 54L9 55L10 55L10 54z"/>
 <path style="fill:#718100; stroke:none;" d="M10 54L10 55L11 55L11 54z"/>
 <path style="fill:#728100; stroke:none;" d="M11 54L11 55L12 55L13 55L14 55L15 55L16 55L17 55L18 55L19 55L20 55L21 55L22 55L23 55L24 55L25 55L26 55L27 55L28 55L29 55L30 55L31 55L32 55L33 55L34 55L35 55L36 55L37 55L38 55L39 55L40 55L41 55L42 55L43 55L44 55L45 55L46 55L47 55L48 55L49 55L50 55L51 55L52 55L53 55L53 54L52 54L51 54L50 54L49 54L48 54L47 54L46 54L45 54L44 54L43 54L42 54L41 54L40 54L39 54L38 54L37 54L36 54L35 54L34 54L33 54L32 54L31 54L30 54L29 54L28 54L27 54L26 54L25 54L24 54L23 54L22 54L21 54L20 54L19 54L18 54L17 54L16 54L15 54L14 54L13 54L12 54z"/>
 <path style="fill:#718100; stroke:none;" d="M53 54L53 55L54 55L54 54z"/>
 <path style="fill:#6e8100; stroke:none;" d="M54 54L54 55L55 55L55 54z"/>
 <path style="fill:#808100; stroke:none;" d="M55 54L55 55L56 55L56 54z"/>
 <path style="fill:#cf8900; stroke:none;" d="M56 54L56 55L57 55L57 54z"/>
 <path style="fill:#b47000; stroke:none;" d="M57 54L57 55L58 55L58 54z"/>
 <path style="fill:#2a1a00; stroke:none;" d="M58 54L58 55L59 55L59 54z"/>
 <path style="fill:#040200; stroke:none;" d="M5 55L5 56L6 56L6 55z"/>
 <path style="fill:#4a2d00; stroke:none;" d="M6 55L6 56L7 56L7 55z"/>
 <path style="fill:#d08000; stroke:none;" d="M7 55L7 56L8 56L8 55z"/>
 <path style="fill:#d28900; stroke:none;" d="M8 55L8 56L9 56L9 55z"/>
 <path style="fill:#cd8700; stroke:none;" d="M9 55L9 56L10 56L11 56L12 56L13 56L14 56L15 56L15 55L14 55L13 55L12 55L11 55L10 55z"/>
 <path style="fill:#cc8700; stroke:none;" d="M15 55L15 56L16 56L16 55z"/>
 <path style="fill:#cd8700; stroke:none;" d="M16 55L16 56L17 56L18 56L19 56L20 56L21 56L22 56L23 56L24 56L25 56L26 56L27 56L28 56L29 56L30 56L31 56L32 56L33 56L34 56L35 56L36 56L37 56L38 56L39 56L40 56L41 56L42 56L43 56L44 56L45 56L46 56L47 56L48 56L49 56L50 56L51 56L52 56L53 56L54 56L55 56L55 55L54 55L53 55L52 55L51 55L50 55L49 55L48 55L47 55L46 55L45 55L44 55L43 55L42 55L41 55L40 55L39 55L38 55L37 55L36 55L35 55L34 55L33 55L32 55L31 55L30 55L29 55L28 55L27 55L26 55L25 55L24 55L23 55L22 55L21 55L20 55L19 55L18 55L17 55z"/>
 <path style="fill:#d28900; stroke:none;" d="M55 55L55 56L56 56L56 55z"/>
 <path style="fill:#cd7f00; stroke:none;" d="M56 55L56 56L57 56L57 55z"/>
 <path style="fill:#482c00; stroke:none;" d="M57 55L57 56L58 56L58 55z"/>
 <path style="fill:#030200; stroke:none;" d="M58 55L58 56L59 56L59 55z"/>
 <path style="fill:#382300; stroke:none;" d="M7 56L7 57L8 57L8 56z"/>
 <path style="fill:#ce8000; stroke:none;" d="M8 56L8 57L9 57L9 56z"/>
 <path style="fill:#dd8b00; stroke:none;" d="M9 56L9 57L10 57L10 56z"/>
 <path style="fill:#d98800; stroke:none;" d="M10 56L10 57L10 58L11 58L12 58L12 57L11 57L11 56z"/>
 <path style="fill:#d88800; stroke:none;" d="M11 56L11 57L12 57L12 58L13 58L13 59L14 59L15 59L15 60L16 60L17 60L18 60L18 61L19 61L20 61L21 61L22 61L22 62L23 62L24 62L25 62L26 62L27 62L27 63L28 63L29 63L30 63L31 63L32 63L33 63L34 63L35 63L36 63L37 63L37 62L38 62L39 62L40 62L41 62L42 62L42 61L43 61L44 61L45 61L46 61L46 60L47 60L48 60L49 60L49 59L50 59L51 59L51 58L52 58L52 57L53 57L54 57L54 56L53 56L52 56L51 56L50 56L49 56L49 57L48 57L47 57L47 58L46 58L45 58L44 58L43 58L43 57L42 57L41 57L40 57L40 56L39 56L38 56L37 56L36 56L35 56L34 56L33 56L32 56L31 56L30 56L29 56L28 56L27 56L26 56L25 56L25 57L24 57L23 57L22 57L22 58L21 58L20 58L19 58L18 58L18 57L17 57L16 57L16 56L15 56L14 56L13 56L12 56z"/>
 <path style="fill:#d78800; stroke:none;" d="M16 56L16 57L17 57L18 57L18 58L19 58L20 58L21 58L22 58L22 57L23 57L24 57L25 57L25 56L24 56L23 56L22 56L21 56L20 56L20 57L19 57L19 56L18 56L17 56z"/>
 <path style="fill:#d58600; stroke:none;" d="M19 56L19 57L20 57L20 56z"/>
 <path style="fill:#d78800; stroke:none;" d="M40 56L40 57L41 57L42 57L43 57L43 58L44 58L45 58L46 58L47 58L47 57L48 57L49 57L49 56L48 56L47 56L46 56L46 57L45 57L45 56L44 56L43 56L42 56L41 56z"/>
 <path style="fill:#d68700; stroke:none;" d="M45 56L45 57L46 57L46 56z"/>
 <path style="fill:#dd8b00; stroke:none;" d="M54 56L54 57L55 57L55 56z"/>
 <path style="fill:#cc7f00; stroke:none;" d="M55 56L55 57L56 57L56 56z"/>
 <path style="fill:#362200; stroke:none;" d="M56 56L56 57L57 57L57 56z"/>
 <path style="fill:#482d00; stroke:none;" d="M8 57L8 58L9 58L9 57z"/>
 <path style="fill:#b26f00; stroke:none;" d="M9 57L9 58L10 58L10 57z"/>
 <path style="fill:#d98800; stroke:none;" d="M52 57L52 58L53 58L54 58L54 57L53 57z"/>
 <path style="fill:#b16e00; stroke:none;" d="M54 57L54 58L55 58L55 57z"/>
 <path style="fill:#462c00; stroke:none;" d="M55 57L55 58L56 58L56 57z"/>
 <path style="fill:#030200; stroke:none;" d="M8 58L8 59L9 59L9 58z"/>
 <path style="fill:#2a1a00; stroke:none;" d="M9 58L9 59L10 59L10 58z"/>
 <path style="fill:#835200; stroke:none;" d="M10 58L10 59L11 59L11 58z"/>
 <path style="fill:#d38400; stroke:none;" d="M11 58L11 59L12 59L12 58z"/>
 <path style="fill:#db8a00; stroke:none;" d="M12 58L12 59L13 59L13 58z"/>
 <path style="fill:#da8a00; stroke:none;" d="M51 58L51 59L52 59L52 58z"/>
 <path style="fill:#d28300; stroke:none;" d="M52 58L52 59L53 59L53 58z"/>
 <path style="fill:#825100; stroke:none;" d="M53 58L53 59L54 59L54 58z"/>
 <path style="fill:#291900; stroke:none;" d="M54 58L54 59L55 59L55 58z"/>
 <path style="fill:#030200; stroke:none;" d="M55 58L55 59L56 59L56 58z"/>
 <path style="fill:#0f0a00; stroke:none;" d="M10 59L10 60L11 60L11 59z"/>
 <path style="fill:#4d3000; stroke:none;" d="M11 59L11 60L12 60L12 59z"/>
 <path style="fill:#ba7400; stroke:none;" d="M12 59L12 60L13 60L13 59z"/>
 <path style="fill:#dc8a00; stroke:none;" d="M13 59L13 60L14 60L14 59z"/>
 <path style="fill:#d98800; stroke:none;" d="M14 59L14 60L15 60L15 59z"/>
 <path style="fill:#d98800; stroke:none;" d="M49 59L49 60L50 60L50 59z"/>
 <path style="fill:#dc8a00; stroke:none;" d="M50 59L50 60L51 60L51 59z"/>
 <path style="fill:#b87300; stroke:none;" d="M51 59L51 60L52 60L52 59z"/>
 <path style="fill:#4b2f00; stroke:none;" d="M52 59L52 60L53 60L53 59z"/>
 <path style="fill:#0f0900; stroke:none;" d="M53 59L53 60L54 60L54 59z"/>
 <path style="fill:#090500; stroke:none;" d="M12 60L12 61L13 61L13 60z"/>
 <path style="fill:#472c00; stroke:none;" d="M13 60L13 61L14 61L14 60z"/>
 <path style="fill:#965e00; stroke:none;" d="M14 60L14 61L15 61L15 60z"/>
 <path style="fill:#bf7800; stroke:none;" d="M15 60L15 61L16 61L16 60z"/>
 <path style="fill:#d38500; stroke:none;" d="M16 60L16 61L17 61L17 60z"/>
 <path style="fill:#d98800; stroke:none;" d="M17 60L17 61L18 61L18 60z"/>
 <path style="fill:#d98800; stroke:none;" d="M46 60L46 61L47 61L47 60z"/>
 <path style="fill:#d38500; stroke:none;" d="M47 60L47 61L48 61L48 60z"/>
 <path style="fill:#c07900; stroke:none;" d="M48 60L48 61L49 61L49 60z"/>
 <path style="fill:#9f6400; stroke:none;" d="M49 60L49 61L50 61L50 60z"/>
 <path style="fill:#4b2f00; stroke:none;" d="M50 60L50 61L51 61L51 60z"/>
 <path style="fill:#080500; stroke:none;" d="M51 60L51 61L52 61L52 60z"/>
 <path style="fill:#2f1d00; stroke:none;" d="M15 61L15 62L16 62L16 61z"/>
 <path style="fill:#714600; stroke:none;" d="M16 61L16 62L17 62L17 61z"/>
 <path style="fill:#8f5900; stroke:none;" d="M17 61L17 62L18 62L18 61z"/>
 <path style="fill:#ab6b00; stroke:none;" d="M18 61L18 62L19 62L19 61z"/>
 <path style="fill:#c07900; stroke:none;" d="M19 61L19 62L20 62L20 61z"/>
 <path style="fill:#d98800; stroke:none;" d="M20 61L20 62L21 62L22 62L22 61L21 61z"/>
 <path style="fill:#d98800; stroke:none;" d="M42 61L42 62L43 62L44 62L44 61L43 61z"/>
 <path style="fill:#c07900; stroke:none;" d="M44 61L44 62L45 62L45 61z"/>
 <path style="fill:#aa6b00; stroke:none;" d="M45 61L45 62L46 62L46 61z"/>
 <path style="fill:#8e5900; stroke:none;" d="M46 61L46 62L47 62L47 61z"/>
 <path style="fill:#704600; stroke:none;" d="M47 61L47 62L48 62L48 61z"/>
 <path style="fill:#321f00; stroke:none;" d="M48 61L48 62L49 62L49 61z"/>
 <path style="fill:#0b0700; stroke:none;" d="M49 61L49 62L50 62L50 61z"/>
 <path style="fill:#0b0700; stroke:none;" d="M17 62L17 63L18 63L18 62z"/>
 <path style="fill:#281900; stroke:none;" d="M18 62L18 63L19 63L19 62z"/>
 <path style="fill:#3e2700; stroke:none;" d="M19 62L19 63L20 63L20 62z"/>
 <path style="fill:#5c3a00; stroke:none;" d="M20 62L20 63L21 63L21 62z"/>
 <path style="fill:#754a00; stroke:none;" d="M21 62L21 63L22 63L22 62z"/>
 <path style="fill:#8e5900; stroke:none;" d="M22 62L22 63L23 63L23 62z"/>
 <path style="fill:#9e6300; stroke:none;" d="M23 62L23 63L24 63L24 62z"/>
 <path style="fill:#b87400; stroke:none;" d="M24 62L24 63L25 63L25 62z"/>
 <path style="fill:#bf7800; stroke:none;" d="M25 62L25 63L26 63L26 62z"/>
 <path style="fill:#d28400; stroke:none;" d="M26 62L26 63L27 63L27 62z"/>
 <path style="fill:#d18400; stroke:none;" d="M37 62L37 63L38 63L38 62z"/>
 <path style="fill:#be7800; stroke:none;" d="M38 62L38 63L39 63L39 62z"/>
 <path style="fill:#b87400; stroke:none;" d="M39 62L39 63L40 63L40 62z"/>
 <path style="fill:#9d6300; stroke:none;" d="M40 62L40 63L41 63L41 62z"/>
 <path style="fill:#8d5900; stroke:none;" d="M41 62L41 63L42 63L42 62z"/>
 <path style="fill:#754a00; stroke:none;" d="M42 62L42 63L43 63L43 62z"/>
 <path style="fill:#5b3a00; stroke:none;" d="M43 62L43 63L44 63L44 62z"/>
 <path style="fill:#3e2700; stroke:none;" d="M44 62L44 63L45 63L45 62z"/>
 <path style="fill:#281900; stroke:none;" d="M45 62L45 63L46 63L46 62z"/>
 <path style="fill:#0a0700; stroke:none;" d="M46 62L46 63L47 63L47 62z"/>
 <path style="fill:#020100; stroke:none;" d="M20 63L20 64L21 64L21 63z"/>
 <path style="fill:#0a0600; stroke:none;" d="M21 63L21 64L22 64L22 63z"/>
 <path style="fill:#120c00; stroke:none;" d="M22 63L22 64L23 64L23 63z"/>
 <path style="fill:#180f00; stroke:none;" d="M23 63L23 64L24 64L24 63z"/>
 <path style="fill:#201400; stroke:none;" d="M24 63L24 64L25 64L25 63z"/>
 <path style="fill:#221600; stroke:none;" d="M25 63L25 64L26 64L26 63z"/>
 <path style="fill:#291a00; stroke:none;" d="M26 63L26 64L27 64L27 63z"/>
 <path style="fill:#2b1b00; stroke:none;" d="M27 63L27 64L28 64L29 64L30 64L31 64L32 64L33 64L34 64L35 64L36 64L37 64L37 63L36 63L35 63L34 63L33 63L32 63L31 63L30 63L29 63L28 63z"/>
 <path style="fill:#291a00; stroke:none;" d="M37 63L37 64L38 64L38 63z"/>
 <path style="fill:#221600; stroke:none;" d="M38 63L38 64L39 64L39 63z"/>
 <path style="fill:#201400; stroke:none;" d="M39 63L39 64L40 64L40 63z"/>
 <path style="fill:#180f00; stroke:none;" d="M40 63L40 64L41 64L41 63z"/>
 <path style="fill:#120c00; stroke:none;" d="M41 63L41 64L42 64L42 63z"/>
 <path style="fill:#0a0600; stroke:none;" d="M42 63L42 64L43 64L43 63z"/>
 <path style="fill:#020100; stroke:none;" d="M43 63L43 64L44 64L44 63z"/>
</svg>
